<?xml version="1.0" encoding="utf-8"?>
<svg width="64" height="64" viewBox="0 0 64 64" fill="none" xmlns="http://www.w3.org/2000/svg">
  <g>
    <path d="M38.7 0L48.35 0L47.7 5.75L38.15 4.65L38.7 0L38.7 0ZM64 9.25L64 17.3L58.25 18.6L56.5 11.05L64 9.25L64 9.25ZM64 34.4L64 39.9L61.3 40.2L60.65 34.8L64 34.4L64 34.4ZM48.4 64L38.7 64L39.25 59.1L48.8 60.2L48.4 64L48.4 64ZM0 39.9L0 34.4L2.05 34.15L2.7 39.55L0 39.9L0 39.9ZM0 17.3L0 9.25L0.05 9.25L1.85 16.85L0 17.3L0 17.3ZM42 8.45L46.4 11.65L43.25 16.05L38.8 12.9L42 8.45L42 8.45ZM46.45 24L50.2 20.05L54.15 23.8L50.4 27.75L46.45 24L46.45 24ZM36.6 19.2L36.05 24.6L30.65 24.05L31.2 18.65L36.6 19.2L36.6 19.2ZM53.2 30.2L58.3 32.15L56.4 37.3L51.25 35.3L53.2 30.2L53.2 30.2ZM55.25 49.5L60.7 50.05L60.1 55.5L54.7 54.95L55.25 49.5L55.25 49.5ZM44.65 29.65L48.15 33.85L43.9 37.3L40.45 33.1L44.65 29.65L44.65 29.65ZM39.3 51.1L34.35 53.3L32.15 48.35L37.05 46.1L39.3 51.1L39.3 51.1ZM52.5 49.3L45.1 51.65L42.75 44.25L50.15 41.9L52.5 49.3L52.5 49.3ZM27.9 38.45L25.5 31L32.95 28.65L35.3 36.1L27.9 38.45L27.9 38.45ZM10.2 6.6L5.25 8.85L3 3.9L8 1.7L10.2 6.6L10.2 6.6ZM20.7 21.8L18.15 31.7L8.3 29.1L10.85 19.25L20.7 21.8L20.7 21.8ZM19.3 2.9L26.2 9.25L19.85 16.15L12.95 9.8L19.3 2.9L19.3 2.9ZM13.2 45.35L14.75 50L10.15 51.55L8.6 46.95L13.2 45.35L13.2 45.35ZM15.3 38.35L12.15 42.75L7.75 39.55L10.95 35.2L15.3 38.35L15.3 38.35ZM19.65 45.8L29.4 48L27.2 57.75L17.5 55.6L19.65 45.8L19.65 45.8ZM1.8 56.95L7.15 56.1L8 61.45L2.65 62.3L1.8 56.95L1.8 56.95Z" fill="#FFFFFF" />
    <path d="M1.8 56.95L2.65 62.3L8 61.45L7.15 56.1L1.8 56.95L1.8 56.95ZM48.35 0L64 0L64 9.25L56.5 11.05L58.25 18.6L64 17.3L64 34.4L60.65 34.8L61.3 40.2L64 39.9L64 64L48.4 64L48.8 60.2L39.25 59.1L38.7 64L0 64L0 39.9L2.7 39.55L2.05 34.15L0 34.4L0 17.3L1.85 16.85L0.05 9.25L0 9.25L0 0L38.7 0L38.15 4.65L47.7 5.75L48.35 0L48.35 0ZM19.65 45.8L17.5 55.6L27.2 57.75L29.4 48L19.65 45.8L19.65 45.8ZM15.3 38.35L10.95 35.2L7.75 39.55L12.15 42.75L15.3 38.35L15.3 38.35ZM13.2 45.35L8.6 46.95L10.15 51.55L14.75 50L13.2 45.35L13.2 45.35ZM19.3 2.9L12.95 9.8L19.85 16.15L26.2 9.25L19.3 2.9L19.3 2.9ZM20.7 21.8L10.85 19.25L8.3 29.1L18.15 31.7L20.7 21.8L20.7 21.8ZM10.2 6.6L8 1.7L3 3.9L5.25 8.85L10.2 6.6L10.2 6.6ZM27.9 38.45L35.3 36.1L32.95 28.65L25.5 31L27.9 38.45L27.9 38.45ZM52.5 49.3L50.15 41.9L42.75 44.25L45.1 51.65L52.5 49.3L52.5 49.3ZM39.3 51.1L37.05 46.1L32.15 48.35L34.35 53.3L39.3 51.1L39.3 51.1ZM44.65 29.65L40.45 33.1L43.9 37.3L48.15 33.85L44.65 29.65L44.65 29.65ZM55.25 49.5L54.7 54.95L60.1 55.5L60.7 50.05L55.25 49.5L55.25 49.5ZM53.2 30.2L51.25 35.3L56.4 37.3L58.3 32.15L53.2 30.2L53.2 30.2ZM36.6 19.2L31.2 18.65L30.65 24.05L36.05 24.6L36.6 19.2L36.6 19.2ZM46.45 24L50.4 27.75L54.15 23.8L50.2 20.05L46.45 24L46.45 24ZM42 8.45L38.8 12.9L43.25 16.05L46.4 11.65L42 8.45L42 8.45Z" fill="#000000" />
  </g>
</svg>