<?xml version="1.0" encoding="utf-8"?>
<svg width="64" height="64" viewBox="0 0 64 64" fill="none" xmlns="http://www.w3.org/2000/svg">
  <g>
    <path d="M62 0L64 0L64 2L50 16L64 30L64 34L50 48L64 62L64 64L62 64L48 50L34 64L30 64L16 50L2 64L0 64L0 62L14 48L0 34L0 30L14 16L0 2L0 0L2 0L16 14L30 0L34 0L48 14L62 0L62 0ZM32 2L18 16L32 30L46 16L32 2L32 2ZM34 32L48 46L62 32L48 18L34 32L34 32ZM32 34L18 48L32 62L46 48L32 34L32 34ZM2 32L16 46L30 32L16 18L2 32L2 32Z" fill="#FFFFFF" />
    <path d="M2 32L16 18L30 32L16 46L2 32L2 32ZM64 2L64 30L50 16L64 2L64 2ZM64 34L64 62L50 48L64 34L64 34ZM62 64L34 64L48 50L62 64L62 64ZM30 64L2 64L16 50L30 64L30 64ZM0 62L0 34L14 48L0 62L0 62ZM0 30L0 2L14 16L0 30L0 30ZM2 0L30 0L16 14L2 0L2 0ZM34 0L62 0L48 14L34 0L34 0ZM32 2L46 16L32 30L18 16L32 2L32 2ZM34 32L48 18L62 32L48 46L34 32L34 32ZM32 34L46 48L32 62L18 48L32 34L32 34Z" fill="#000000" />
  </g>
</svg>