<svg width="0" height="0" fill="none" style="visibility: hidden; position: absolute;" aria-hidden="true">
    <symbol id="doorEl" width="64" height="64" viewBox="0 0 64 64" fill="none" xmlns="http://www.w3.org/2000/svg">
        <g>
            <path d="M60 27C60 27 59.75 26.3 59.75 26.3C59.55 26.1 59.3 26 59 26C58.7333 26 58.5 26.1 58.3 26.3C58.1 26.5 58 26.7333 58 27C58 27.3 58.1 27.55 58.3 27.75C58.5 27.9167 58.7333 28 59 28C59 28 59.75 27.75 59.75 27.75C59.75 27.75 60 27 60 27C60 27 60 27 60 27ZM36 27C36 27 35.75 26.3 35.75 26.3C35.55 26.1 35.3 26 35 26C34.7333 26 34.5 26.1 34.3 26.3C34.1 26.5 34 26.7333 34 27C34 27.3 34.1 27.55 34.3 27.75C34.3 27.75 35 28 35 28C35 28 35.75 27.75 35.75 27.75L36 27C36 27 36 27 36 27ZM36 3C36 3 35.75 2.3 35.75 2.3C35.55 2.1 35.3 2 35 2C34.7333 2 34.5 2.1 34.3 2.3C34.1 2.5 34 2.73333 34 3C34 3.3 34.1 3.55 34.3 3.75C34.3 3.75 35 4 35 4C35 4 35.75 3.75 35.75 3.75L36 3C36 3 36 3 36 3ZM60 3C60 3 59.75 2.3 59.75 2.3C59.55 2.1 59.3 2 59 2C58.7333 2 58.5 2.1 58.3 2.3C58.1 2.5 58 2.73333 58 3C58 3.3 58.1 3.55 58.3 3.75C58.5 3.91667 58.7333 4 59 4C59 4 59.75 3.75 59.75 3.75C59.75 3.75 60 3 60 3C60 3 60 3 60 3ZM62 0C62 0 62 30 62 30L32 30L32 0L62 0C62 0 62 0 62 0ZM60 59C60 59 59.75 58.3 59.75 58.3C59.55 58.1 59.3 58 59 58C58.7333 58 58.5 58.1 58.3 58.3C58.1 58.5 58 58.7333 58 59C58 59.3 58.1 59.55 58.3 59.75C58.5 59.9167 58.7333 60 59 60C59 60 59.75 59.75 59.75 59.75C59.75 59.75 60 59 60 59C60 59 60 59 60 59ZM36 59C36 59 35.75 58.3 35.75 58.3C35.55 58.1 35.3 58 35 58C34.7333 58 34.5 58.1 34.3 58.3C34.1 58.5 34 58.7333 34 59C34 59.3 34.1 59.55 34.3 59.75C34.3 59.75 35 60 35 60C35 60 35.75 59.75 35.75 59.75L36 59C36 59 36 59 36 59ZM36 35C36 35 35.75 34.3 35.75 34.3C35.55 34.1 35.3 34 35 34C34.7333 34 34.5 34.1 34.3 34.3C34.1 34.5 34 34.7333 34 35C34 35.3 34.1 35.55 34.3 35.75C34.3 35.75 35 36 35 36C35 36 35.75 35.75 35.75 35.75L36 35C36 35 36 35 36 35ZM60 35C60 35 59.75 34.3 59.75 34.3C59.55 34.1 59.3 34 59 34C58.7333 34 58.5 34.1 58.3 34.3C58.1 34.5 58 34.7333 58 35C58 35.3 58.1 35.55 58.3 35.75C58.5 35.9167 58.7333 36 59 36C59 36 59.75 35.75 59.75 35.75C59.75 35.75 60 35 60 35C60 35 60 35 60 35ZM62 62C62 62 32 62 32 62L32 32L62 32L62 62C62 62 62 62 62 62ZM28 27C28 27 27.75 26.3 27.75 26.3C27.55 26.1 27.3 26 27 26C26.7333 26 26.5 26.1 26.3 26.3C26.1 26.5 26 26.7333 26 27C26 27.3 26.1 27.55 26.3 27.75C26.3 27.75 27 28 27 28C27 28 27.75 27.75 27.75 27.75L28 27C28 27 28 27 28 27ZM4 27C4 27 3.75 26.3 3.75 26.3C3.55 26.1 3.3 26 3 26C2.73333 26 2.5 26.1 2.3 26.3C2.1 26.5 2 26.7333 2 27C2 27.3 2.1 27.55 2.3 27.75C2.5 27.9167 2.73333 28 3 28C3 28 3.75 27.75 3.75 27.75C3.75 27.75 4 27 4 27C4 27 4 27 4 27ZM4 3C4 3 3.75 2.3 3.75 2.3C3.55 2.1 3.3 2 3 2C2.73333 2 2.5 2.1 2.3 2.3C2.1 2.5 2 2.73333 2 3C2 3.3 2.1 3.55 2.3 3.75C2.5 3.91667 2.73333 4 3 4C3 4 3.75 3.75 3.75 3.75C3.75 3.75 4 3 4 3C4 3 4 3 4 3ZM28 3C28 3 27.75 2.3 27.75 2.3C27.55 2.1 27.3 2 27 2C26.7333 2 26.5 2.1 26.3 2.3C26.1 2.5 26 2.73333 26 3C26 3.3 26.1 3.55 26.3 3.75C26.3 3.75 27 4 27 4C27 4 27.75 3.75 27.75 3.75L28 3C28 3 28 3 28 3ZM0 0C0 0 30 0 30 0L30 30L0 30L0 0C0 0 0 0 0 0ZM28 59C28 59 27.75 58.3 27.75 58.3C27.55 58.1 27.3 58 27 58C26.7333 58 26.5 58.1 26.3 58.3C26.1 58.5 26 58.7333 26 59C26 59.3 26.1 59.55 26.3 59.75C26.3 59.75 27 60 27 60C27 60 27.75 59.75 27.75 59.75L28 59C28 59 28 59 28 59ZM4 59C4 59 3.75 58.3 3.75 58.3C3.55 58.1 3.3 58 3 58C2.73333 58 2.5 58.1 2.3 58.3C2.1 58.5 2 58.7333 2 59C2 59.3 2.1 59.55 2.3 59.75C2.5 59.9167 2.73333 60 3 60C3 60 3.75 59.75 3.75 59.75C3.75 59.75 4 59 4 59C4 59 4 59 4 59ZM4 35C4 35 3.75 34.3 3.75 34.3C3.55 34.1 3.3 34 3 34C2.73333 34 2.5 34.1 2.3 34.3C2.1 34.5 2 34.7333 2 35C2 35.3 2.1 35.55 2.3 35.75C2.5 35.9167 2.73333 36 3 36C3 36 3.75 35.75 3.75 35.75C3.75 35.75 4 35 4 35C4 35 4 35 4 35ZM28 35C28 35 27.75 34.3 27.75 34.3C27.55 34.1 27.3 34 27 34C26.7333 34 26.5 34.1 26.3 34.3C26.1 34.5 26 34.7333 26 35C26 35.3 26.1 35.55 26.3 35.75C26.3 35.75 27 36 27 36C27 36 27.75 35.75 27.75 35.75L28 35C28 35 28 35 28 35ZM0 62C0 62 0 32 0 32L30 32L30 62L0 62C0 62 0 62 0 62Z" fill="#000000" transform="translate(1 1)"/>
            <path d="M1 63C1 63 31 63 31 63L31 33L1 33L1 63C1 63 1 63 1 63ZM61 4C61 4 60.75 4.75 60.75 4.75C60.75 4.75 60 5 60 5C59.7333 5 59.5 4.91667 59.3 4.75C59.1 4.55 59 4.3 59 4C59 3.73333 59.1 3.5 59.3 3.3C59.5 3.1 59.7333 3 60 3C60.3 3 60.55 3.1 60.75 3.3C60.75 3.3 61 4 61 4C61 4 61 4 61 4ZM37 4C37 4 36.75 4.75 36.75 4.75C36.75 4.75 36 5 36 5C36 5 35.3 4.75 35.3 4.75C35.1 4.55 35 4.3 35 4C35 3.73333 35.1 3.5 35.3 3.3C35.5 3.1 35.7333 3 36 3C36.3 3 36.55 3.1 36.75 3.3C36.75 3.3 37 4 37 4C37 4 37 4 37 4ZM37 28C37 28 36.75 28.75 36.75 28.75C36.75 28.75 36 29 36 29C36 29 35.3 28.75 35.3 28.75C35.1 28.55 35 28.3 35 28C35 27.7333 35.1 27.5 35.3 27.3C35.5 27.1 35.7333 27 36 27C36.3 27 36.55 27.1 36.75 27.3C36.75 27.3 37 28 37 28C37 28 37 28 37 28ZM61 28C61 28 60.75 28.75 60.75 28.75C60.75 28.75 60 29 60 29C59.7333 29 59.5 28.9167 59.3 28.75C59.1 28.55 59 28.3 59 28C59 27.7333 59.1 27.5 59.3 27.3C59.5 27.1 59.7333 27 60 27C60.3 27 60.55 27.1 60.75 27.3C60.75 27.3 61 28 61 28C61 28 61 28 61 28ZM63 1C63 1 33 1 33 1L33 31L63 31L63 1C63 1 63 1 63 1ZM61 36C61 36 60.75 36.75 60.75 36.75C60.75 36.75 60 37 60 37C59.7333 37 59.5 36.9167 59.3 36.75C59.1 36.55 59 36.3 59 36C59 35.7333 59.1 35.5 59.3 35.3C59.5 35.1 59.7333 35 60 35C60.3 35 60.55 35.1 60.75 35.3C60.75 35.3 61 36 61 36C61 36 61 36 61 36ZM37 36C37 36 36.75 36.75 36.75 36.75C36.75 36.75 36 37 36 37C36 37 35.3 36.75 35.3 36.75C35.1 36.55 35 36.3 35 36C35 35.7333 35.1 35.5 35.3 35.3C35.5 35.1 35.7333 35 36 35C36.3 35 36.55 35.1 36.75 35.3C36.75 35.3 37 36 37 36C37 36 37 36 37 36ZM37 60C37 60 36.75 60.75 36.75 60.75C36.75 60.75 36 61 36 61C36 61 35.3 60.75 35.3 60.75C35.1 60.55 35 60.3 35 60C35 59.7333 35.1 59.5 35.3 59.3C35.5 59.1 35.7333 59 36 59C36.3 59 36.55 59.1 36.75 59.3C36.75 59.3 37 60 37 60C37 60 37 60 37 60ZM61 60C61 60 60.75 60.75 60.75 60.75C60.75 60.75 60 61 60 61C59.7333 61 59.5 60.9167 59.3 60.75C59.1 60.55 59 60.3 59 60C59 59.7333 59.1 59.5 59.3 59.3C59.5 59.1 59.7333 59 60 59C60.3 59 60.55 59.1 60.75 59.3C60.75 59.3 61 60 61 60C61 60 61 60 61 60ZM63 63C63 63 63 33 63 33L33 33L33 63L63 63C63 63 63 63 63 63ZM64 64C64 64 0 64 0 64L0 0L64 0L64 64C64 64 64 64 64 64ZM29 4C29 4 28.75 4.75 28.75 4.75C28.75 4.75 28 5 28 5C28 5 27.3 4.75 27.3 4.75C27.1 4.55 27 4.3 27 4C27 3.73333 27.1 3.5 27.3 3.3C27.5 3.1 27.7333 3 28 3C28.3 3 28.55 3.1 28.75 3.3C28.75 3.3 29 4 29 4C29 4 29 4 29 4ZM5 4C5 4 4.75 4.75 4.75 4.75C4.75 4.75 4 5 4 5C3.73333 5 3.5 4.91667 3.3 4.75C3.1 4.55 3 4.3 3 4C3 3.73333 3.1 3.5 3.3 3.3C3.5 3.1 3.73333 3 4 3C4.3 3 4.55 3.1 4.75 3.3C4.75 3.3 5 4 5 4C5 4 5 4 5 4ZM5 28C5 28 4.75 28.75 4.75 28.75C4.75 28.75 4 29 4 29C3.73333 29 3.5 28.9167 3.3 28.75C3.1 28.55 3 28.3 3 28C3 27.7333 3.1 27.5 3.3 27.3C3.5 27.1 3.73333 27 4 27C4.3 27 4.55 27.1 4.75 27.3C4.75 27.3 5 28 5 28C5 28 5 28 5 28ZM29 28C29 28 28.75 28.75 28.75 28.75C28.75 28.75 28 29 28 29C28 29 27.3 28.75 27.3 28.75C27.1 28.55 27 28.3 27 28C27 27.7333 27.1 27.5 27.3 27.3C27.5 27.1 27.7333 27 28 27C28.3 27 28.55 27.1 28.75 27.3C28.75 27.3 29 28 29 28C29 28 29 28 29 28ZM1 1C1 1 1 31 1 31L31 31L31 1L1 1C1 1 1 1 1 1ZM29 36C29 36 28.75 36.75 28.75 36.75C28.75 36.75 28 37 28 37C28 37 27.3 36.75 27.3 36.75C27.1 36.55 27 36.3 27 36C27 35.7333 27.1 35.5 27.3 35.3C27.5 35.1 27.7333 35 28 35C28.3 35 28.55 35.1 28.75 35.3C28.75 35.3 29 36 29 36C29 36 29 36 29 36ZM5 36C5 36 4.75 36.75 4.75 36.75C4.75 36.75 4 37 4 37C3.73333 37 3.5 36.9167 3.3 36.75C3.1 36.55 3 36.3 3 36C3 35.7333 3.1 35.5 3.3 35.3C3.5 35.1 3.73333 35 4 35C4.3 35 4.55 35.1 4.75 35.3C4.75 35.3 5 36 5 36C5 36 5 36 5 36ZM5 60C5 60 4.75 60.75 4.75 60.75C4.75 60.75 4 61 4 61C3.73333 61 3.5 60.9167 3.3 60.75C3.1 60.55 3 60.3 3 60C3 59.7333 3.1 59.5 3.3 59.3C3.5 59.1 3.73333 59 4 59C4.3 59 4.55 59.1 4.75 59.3C4.75 59.3 5 60 5 60C5 60 5 60 5 60ZM29 60C29 60 28.75 60.75 28.75 60.75C28.75 60.75 28 61 28 61C28 61 27.3 60.75 27.3 60.75C27.1 60.55 27 60.3 27 60C27 59.7333 27.1 59.5 27.3 59.3C27.5 59.1 27.7333 59 28 59C28.3 59 28.55 59.1 28.75 59.3C28.75 59.3 29 60 29 60C29 60 29 60 29 60Z" fill="#FFFFFF"/>
        </g>
    </symbol>
    <symbol id="floor1" width="64" height="64" viewBox="0 0 64 64" fill="none" xmlns="http://www.w3.org/2000/svg">
        <g>
            <path d="M45.7 0C45.7 0 44.45 1.4 44.45 1.4C43.75 2.36667 43.4167 3.23333 43.45 4C43.4167 4.73333 43.75 5.58333 44.45 6.55C44.45 6.55 47.1 9.5 47.1 9.5C47.1 9.5 50.05 12.15 50.05 12.15C51.0167 12.85 51.8667 13.1833 52.6 13.15C53.3667 13.1833 54.2333 12.85 55.2 12.15C55.2 12.15 58.15 9.5 58.15 9.5C58.15 9.5 60.75 6.55 60.75 6.55C61.45 5.58333 61.8 4.73333 61.8 4C61.8 3.23333 61.45 2.36667 60.75 1.4C60.75 1.4 59.55 0 59.55 0L64 0L64 3.55C64 3.55 63.55 4.05 63.55 4.05C62.7833 4.95 62.3833 5.76667 62.35 6.5C62.25 7.26667 62.5333 8.15 63.2 9.15C63.2 9.15 64 10.3 64 10.3C64 10.3 64 13.55 64 13.55C62.6 12.5167 61.35 12.0167 60.25 12.05C59.15 12.0167 57.9 12.5167 56.5 13.55C56.5 13.55 52.15 17.4 52.15 17.4C50.2167 19.4333 48.9333 20.8833 48.3 21.75C47.2667 23.1833 46.7667 24.45 46.8 25.55C46.7667 26.65 47.2667 27.9 48.3 29.3C48.3 29.3 52.15 33.65 52.15 33.65C52.15 33.65 56.5 37.5 56.5 37.5C57.9 38.5333 59.15 39.0333 60.25 39C61.35 39.0333 62.6 38.55 64 37.55C64 37.55 64 50 64 50C63.4333 49.6667 62.9333 49.5 62.5 49.5C61.9667 49.5 61.3667 49.7333 60.7 50.2C60.3 50.5 59.6167 51.1167 58.65 52.05C58.65 52.05 56.85 54.05 56.85 54.05C56.35 54.75 56.1167 55.35 56.15 55.85C56.1167 56.3833 56.35 56.9833 56.85 57.65C56.85 57.65 58.65 59.7 58.65 59.7C58.65 59.7 60.7 61.5 60.7 61.5C61.3667 62 61.9667 62.2333 62.5 62.2C62.9333 62.2333 63.4333 62.0667 64 61.7C64 61.7 64 64 64 64L59.6 64L58.15 62.45C58.15 62.45 55.2 59.85 55.2 59.85C54.2333 59.15 53.3667 58.8 52.6 58.8C51.8667 58.8 51.0167 59.15 50.05 59.85C50.05 59.85 47.1 62.45 47.1 62.45L45.65 64C45.65 64 41.55 64 41.55 64C41.5833 62.9667 41.1 61.7833 40.1 60.45C40.1 60.45 36.4 56.25 36.4 56.25C36.4 56.25 32.25 52.55 32.25 52.55C30.8833 51.55 29.6667 51.0667 28.6 51.1C27.5667 51.0667 26.3667 51.55 25 52.55C25 52.55 20.85 56.25 20.85 56.25C18.9833 58.2167 17.75 59.6167 17.15 60.45C16.15 61.7833 15.6667 62.9667 15.7 64C15.7 64 11.4 64 11.4 64C11.4 64 10.65 63.25 10.65 63.25C9.71667 62.45 8.88333 62.05 8.15 62.05C7.38333 61.95 6.5 62.2167 5.5 62.85C5.5 62.85 4 64 4 64L0 64L0 61.75L0.3 61.5L2.35 59.7C2.35 59.7 4.15 57.65 4.15 57.65C4.65 56.9833 4.88333 56.3833 4.85 55.85C4.88333 55.35 4.65 54.75 4.15 54.05C4.15 54.05 2.35 52.05 2.35 52.05L0.3 50.2L0 50L0 37.55L0.05 37.5L4.35 33.65C4.35 33.65 8.2 29.3 8.2 29.3C9.23333 27.9 9.73333 26.65 9.7 25.55C9.73333 24.45 9.23333 23.1833 8.2 21.75C8.2 21.75 4.35 17.4 4.35 17.4L0.05 13.55L0 13.55L0 10.3L1.55 12.3C1.55 12.3 4.3 15.15 4.3 15.15C5.2 15.9167 6.03333 16.3167 6.8 16.35C7.53333 16.4167 8.41667 16.1333 9.45 15.5C9.45 15.5 12.55 13.1 12.55 13.1C12.55 13.1 15.4 10.35 15.4 10.35C16.1667 9.45 16.5667 8.61667 16.6 7.85C16.7 7.11667 16.4333 6.23333 15.8 5.2C15.8 5.2 13.4 2.05 13.4 2.05L11.4 0C11.4 0 15.7 0 15.7 0C15.6667 1.06667 16.15 2.28333 17.15 3.65C17.75 4.48333 18.9833 5.86667 20.85 7.8C20.85 7.8 25 11.5 25 11.5C26.3667 12.5 27.5667 12.9833 28.6 12.95C29.6667 12.9833 30.8833 12.5 32.25 11.5C32.25 11.5 36.4 7.8 36.4 7.8C36.4 7.8 40.1 3.65 40.1 3.65C41.1 2.28333 41.5833 1.06667 41.55 0C41.55 0 45.7 0 45.7 0L45.7 0ZM39.6 24.95C39.6 24.95 36 21.35 36 21.35C34.8 20.35 33.7167 19.8333 32.75 19.8C31.7833 19.7333 30.65 20.1167 29.35 20.95C29.35 20.95 25.35 24.1 25.35 24.1C25.35 24.1 21.75 27.7 21.75 27.7C20.7833 28.9 20.2833 29.9833 20.25 30.95C20.15 31.8833 20.5167 33.0167 21.35 34.35C21.35 34.35 24.55 38.35 24.55 38.35C24.55 38.35 28.15 41.95 28.15 41.95C29.35 42.9167 30.4167 43.4 31.35 43.4C32.3167 43.5 33.45 43.1333 34.75 42.3C34.75 42.3 38.75 39.15 38.75 39.15C38.75 39.15 42.35 35.55 42.35 35.55C43.35 34.35 43.8667 33.2667 43.9 32.3C43.9667 31.3333 43.5833 30.2167 42.75 28.95C42.75 28.95 39.6 24.95 39.6 24.95L39.6 24.95ZM44.9 10.85C44.9 10.85 42.85 9.05 42.85 9.05C42.1833 8.55 41.5833 8.3 41.05 8.3C40.55 8.3 39.9667 8.55 39.3 9.05C39.3 9.05 37.25 10.85 37.25 10.85C36.3167 11.8167 35.7 12.5 35.4 12.9C34.9333 13.5667 34.7 14.15 34.7 14.65C34.7 15.1833 34.9333 15.7833 35.4 16.45C35.4 16.45 37.25 18.5 37.25 18.5C37.25 18.5 39.3 20.35 39.3 20.35C39.9667 20.8167 40.55 21.05 41.05 21.05C41.5833 21.05 42.1833 20.8167 42.85 20.35C42.85 20.35 44.9 18.5 44.9 18.5C44.9 18.5 46.7 16.45 46.7 16.45C47.2 15.7833 47.4333 15.1833 47.4 14.65C47.4333 14.15 47.2 13.5667 46.7 12.9C46.7 12.9 44.9 10.85 44.9 10.85L44.9 10.85ZM55.25 40.7C55.25 40.7 52.3 38.05 52.3 38.05C51.3333 37.35 50.4667 37.0167 49.7 37.05C48.9667 37.0167 48.1167 37.35 47.15 38.05C47.15 38.05 44.2 40.7 44.2 40.7C44.2 40.7 41.6 43.65 41.6 43.65C40.8667 44.6167 40.5167 45.4667 40.55 46.2C40.5167 46.9667 40.8667 47.8333 41.6 48.8C41.6 48.8 44.2 51.75 44.2 51.75C44.2 51.75 47.15 54.4 47.15 54.4C48.1167 55.1 48.9667 55.4333 49.7 55.4C50.4667 55.4333 51.3333 55.1 52.3 54.4C52.3 54.4 55.25 51.75 55.25 51.75C55.25 51.75 57.9 48.8 57.9 48.8C58.6 47.8333 58.9333 46.9667 58.9 46.2C58.9333 45.4667 58.6 44.6167 57.9 43.65C57.9 43.65 55.25 40.7 55.25 40.7L55.25 40.7ZM0 3.55L0 0L4 0L2.35 1.25L0 3.55L0 3.55ZM22.3 16.3C22.3 16.3 20.5 14.2 20.5 14.2C19.9 13.6 19.35 13.2667 18.85 13.2C18.35 13.1333 17.7333 13.2833 17 13.65C17 13.65 14.7 15.15 14.7 15.15C14.7 15.15 12.6 16.95 12.6 16.95C12.0333 17.55 11.7167 18.1 11.65 18.6C11.55 19.1 11.7 19.7167 12.1 20.45C12.1 20.45 13.6 22.75 13.6 22.75C13.6 22.75 15.35 24.85 15.35 24.85C15.95 25.45 16.5 25.7667 17 25.8C17.5333 25.9 18.15 25.75 18.85 25.35C18.85 25.35 21.15 23.85 21.15 23.85C21.15 23.85 23.25 22.1 23.25 22.1C23.85 21.5 24.1667 20.95 24.2 20.45C24.3 19.9167 24.1667 19.3 23.8 18.6C23.8 18.6 22.3 16.3 22.3 16.3L22.3 16.3ZM18.45 37.55C18.45 37.55 15.2 35.25 15.2 35.25C14.1667 34.65 13.2833 34.4 12.55 34.5C11.7833 34.5667 10.9667 35 10.1 35.8C10.1 35.8 7.45 38.75 7.45 38.75C7.45 38.75 5.2 42 5.2 42C4.6 43.0333 4.35 43.9167 4.45 44.65C4.48333 45.3833 4.91667 46.2 5.75 47.1C5.75 47.1 8.65 49.75 8.65 49.75C8.65 49.75 11.9 52 11.9 52C12.9333 52.6 13.8167 52.85 14.55 52.75C15.3167 52.6833 16.1333 52.25 17 51.45C17 51.45 19.65 48.5 19.65 48.5C19.65 48.5 21.95 45.3 21.95 45.3C22.55 44.2667 22.7833 43.3667 22.65 42.6C22.6167 41.8667 22.1833 41.05 21.35 40.15C21.35 40.15 18.45 37.55 18.45 37.55L18.45 37.55Z" fill="#000000"/>
            <path d="M18.45 37.55C18.45 37.55 21.35 40.15 21.35 40.15C22.1833 41.05 22.6167 41.8667 22.65 42.6C22.7833 43.3667 22.55 44.2667 21.95 45.3C21.95 45.3 19.65 48.5 19.65 48.5C19.65 48.5 17 51.45 17 51.45C16.1333 52.25 15.3167 52.6833 14.55 52.75C13.8167 52.85 12.9333 52.6 11.9 52C11.9 52 8.65 49.75 8.65 49.75C8.65 49.75 5.75 47.1 5.75 47.1C4.91667 46.2 4.48333 45.3833 4.45 44.65C4.35 43.9167 4.6 43.0333 5.2 42C5.2 42 7.45 38.75 7.45 38.75C7.45 38.75 10.1 35.8 10.1 35.8C10.9667 35 11.7833 34.5667 12.55 34.5C13.2833 34.4 14.1667 34.65 15.2 35.25C15.2 35.25 18.45 37.55 18.45 37.55L18.45 37.55ZM59.55 0C59.55 0 60.75 1.4 60.75 1.4C61.45 2.36667 61.8 3.23333 61.8 4C61.8 4.73333 61.45 5.58333 60.75 6.55C60.75 6.55 58.15 9.5 58.15 9.5C58.15 9.5 55.2 12.15 55.2 12.15C54.2333 12.85 53.3667 13.1833 52.6 13.15C51.8667 13.1833 51.0167 12.85 50.05 12.15C50.05 12.15 47.1 9.5 47.1 9.5C47.1 9.5 44.45 6.55 44.45 6.55C43.75 5.58333 43.4167 4.73333 43.45 4C43.4167 3.23333 43.75 2.36667 44.45 1.4C44.45 1.4 45.7 0 45.7 0L59.55 0L59.55 0ZM41.55 0C41.5833 1.06667 41.1 2.28333 40.1 3.65C40.1 3.65 36.4 7.8 36.4 7.8C36.4 7.8 32.25 11.5 32.25 11.5C30.8833 12.5 29.6667 12.9833 28.6 12.95C27.5667 12.9833 26.3667 12.5 25 11.5C25 11.5 20.85 7.8 20.85 7.8C18.9833 5.86667 17.75 4.48333 17.15 3.65C16.15 2.28333 15.6667 1.06667 15.7 0C15.7 0 41.55 0 41.55 0C41.55 0 41.55 0 41.55 0ZM11.4 0L13.4 2.05C13.4 2.05 15.8 5.2 15.8 5.2C16.4333 6.23333 16.7 7.11667 16.6 7.85C16.5667 8.61667 16.1667 9.45 15.4 10.35C15.4 10.35 12.55 13.1 12.55 13.1C12.55 13.1 9.45 15.5 9.45 15.5C8.41667 16.1333 7.53333 16.4167 6.8 16.35C6.03333 16.3167 5.2 15.9167 4.3 15.15C4.3 15.15 1.55 12.3 1.55 12.3L0 10.3L0 3.55L2.35 1.25L4 0L11.4 0L11.4 0ZM0 13.55L0.05 13.55L4.35 17.4C4.35 17.4 8.2 21.75 8.2 21.75C9.23333 23.1833 9.73333 24.45 9.7 25.55C9.73333 26.65 9.23333 27.9 8.2 29.3C8.2 29.3 4.35 33.65 4.35 33.65L0.05 37.5L0 37.55L0 13.55L0 13.55ZM0 50L0.3 50.2L2.35 52.05C2.35 52.05 4.15 54.05 4.15 54.05C4.65 54.75 4.88333 55.35 4.85 55.85C4.88333 56.3833 4.65 56.9833 4.15 57.65C4.15 57.65 2.35 59.7 2.35 59.7L0.3 61.5L0 61.75L0 50L0 50ZM4 64C4 64 5.5 62.85 5.5 62.85C6.5 62.2167 7.38333 61.95 8.15 62.05C8.88333 62.05 9.71667 62.45 10.65 63.25C10.65 63.25 11.4 64 11.4 64L4 64L4 64ZM15.7 64C15.6667 62.9667 16.15 61.7833 17.15 60.45C17.75 59.6167 18.9833 58.2167 20.85 56.25C20.85 56.25 25 52.55 25 52.55C26.3667 51.55 27.5667 51.0667 28.6 51.1C29.6667 51.0667 30.8833 51.55 32.25 52.55C32.25 52.55 36.4 56.25 36.4 56.25C36.4 56.25 40.1 60.45 40.1 60.45C41.1 61.7833 41.5833 62.9667 41.55 64C41.55 64 15.7 64 15.7 64C15.7 64 15.7 64 15.7 64ZM45.65 64L47.1 62.45C47.1 62.45 50.05 59.85 50.05 59.85C51.0167 59.15 51.8667 58.8 52.6 58.8C53.3667 58.8 54.2333 59.15 55.2 59.85C55.2 59.85 58.15 62.45 58.15 62.45L59.6 64L45.65 64L45.65 64ZM64 61.7C63.4333 62.0667 62.9333 62.2333 62.5 62.2C61.9667 62.2333 61.3667 62 60.7 61.5C60.7 61.5 58.65 59.7 58.65 59.7C58.65 59.7 56.85 57.65 56.85 57.65C56.35 56.9833 56.1167 56.3833 56.15 55.85C56.1167 55.35 56.35 54.75 56.85 54.05C56.85 54.05 58.65 52.05 58.65 52.05C59.6167 51.1167 60.3 50.5 60.7 50.2C61.3667 49.7333 61.9667 49.5 62.5 49.5C62.9333 49.5 63.4333 49.6667 64 50C64 50 64 61.7 64 61.7C64 61.7 64 61.7 64 61.7ZM64 37.55C62.6 38.55 61.35 39.0333 60.25 39C59.15 39.0333 57.9 38.5333 56.5 37.5C56.5 37.5 52.15 33.65 52.15 33.65C52.15 33.65 48.3 29.3 48.3 29.3C47.2667 27.9 46.7667 26.65 46.8 25.55C46.7667 24.45 47.2667 23.1833 48.3 21.75C48.9333 20.8833 50.2167 19.4333 52.15 17.4C52.15 17.4 56.5 13.55 56.5 13.55C57.9 12.5167 59.15 12.0167 60.25 12.05C61.35 12.0167 62.6 12.5167 64 13.55C64 13.55 64 37.55 64 37.55C64 37.55 64 37.55 64 37.55ZM64 10.3C64 10.3 63.2 9.15 63.2 9.15C62.5333 8.15 62.25 7.26667 62.35 6.5C62.3833 5.76667 62.7833 4.95 63.55 4.05C63.55 4.05 64 3.55 64 3.55L64 10.3L64 10.3ZM44.9 10.85C44.9 10.85 46.7 12.9 46.7 12.9C47.2 13.5667 47.4333 14.15 47.4 14.65C47.4333 15.1833 47.2 15.7833 46.7 16.45C46.7 16.45 44.9 18.5 44.9 18.5C44.9 18.5 42.85 20.35 42.85 20.35C42.1833 20.8167 41.5833 21.05 41.05 21.05C40.55 21.05 39.9667 20.8167 39.3 20.35C39.3 20.35 37.25 18.5 37.25 18.5C37.25 18.5 35.4 16.45 35.4 16.45C34.9333 15.7833 34.7 15.1833 34.7 14.65C34.7 14.15 34.9333 13.5667 35.4 12.9C35.7 12.5 36.3167 11.8167 37.25 10.85C37.25 10.85 39.3 9.05 39.3 9.05C39.9667 8.55 40.55 8.3 41.05 8.3C41.5833 8.3 42.1833 8.55 42.85 9.05C42.85 9.05 44.9 10.85 44.9 10.85L44.9 10.85ZM39.6 24.95C39.6 24.95 42.75 28.95 42.75 28.95C43.5833 30.2167 43.9667 31.3333 43.9 32.3C43.8667 33.2667 43.35 34.35 42.35 35.55C42.35 35.55 38.75 39.15 38.75 39.15C38.75 39.15 34.75 42.3 34.75 42.3C33.45 43.1333 32.3167 43.5 31.35 43.4C30.4167 43.4 29.35 42.9167 28.15 41.95C28.15 41.95 24.55 38.35 24.55 38.35C24.55 38.35 21.35 34.35 21.35 34.35C20.5167 33.0167 20.15 31.8833 20.25 30.95C20.2833 29.9833 20.7833 28.9 21.75 27.7C21.75 27.7 25.35 24.1 25.35 24.1C25.35 24.1 29.35 20.95 29.35 20.95C30.65 20.1167 31.7833 19.7333 32.75 19.8C33.7167 19.8333 34.8 20.35 36 21.35C36 21.35 39.6 24.95 39.6 24.95L39.6 24.95ZM55.25 40.7C55.25 40.7 57.9 43.65 57.9 43.65C58.6 44.6167 58.9333 45.4667 58.9 46.2C58.9333 46.9667 58.6 47.8333 57.9 48.8C57.9 48.8 55.25 51.75 55.25 51.75C55.25 51.75 52.3 54.4 52.3 54.4C51.3333 55.1 50.4667 55.4333 49.7 55.4C48.9667 55.4333 48.1167 55.1 47.15 54.4C47.15 54.4 44.2 51.75 44.2 51.75C44.2 51.75 41.6 48.8 41.6 48.8C40.8667 47.8333 40.5167 46.9667 40.55 46.2C40.5167 45.4667 40.8667 44.6167 41.6 43.65C41.6 43.65 44.2 40.7 44.2 40.7C44.2 40.7 47.15 38.05 47.15 38.05C48.1167 37.35 48.9667 37.0167 49.7 37.05C50.4667 37.0167 51.3333 37.35 52.3 38.05C52.3 38.05 55.25 40.7 55.25 40.7L55.25 40.7ZM22.3 16.3C22.3 16.3 23.8 18.6 23.8 18.6C24.1667 19.3 24.3 19.9167 24.2 20.45C24.1667 20.95 23.85 21.5 23.25 22.1C23.25 22.1 21.15 23.85 21.15 23.85C21.15 23.85 18.85 25.35 18.85 25.35C18.15 25.75 17.5333 25.9 17 25.8C16.5 25.7667 15.95 25.45 15.35 24.85C15.35 24.85 13.6 22.75 13.6 22.75C13.6 22.75 12.1 20.45 12.1 20.45C11.7 19.7167 11.55 19.1 11.65 18.6C11.7167 18.1 12.0333 17.55 12.6 16.95C12.6 16.95 14.7 15.15 14.7 15.15C14.7 15.15 17 13.65 17 13.65C17.7333 13.2833 18.35 13.1333 18.85 13.2C19.35 13.2667 19.9 13.6 20.5 14.2C20.5 14.2 22.3 16.3 22.3 16.3L22.3 16.3Z" fill="#FFFFFF"/>
        </g>
    </symbol>
    <symbol id="floor2" width="64" height="64" viewBox="0 0 64 64" fill="none" xmlns="http://www.w3.org/2000/svg">
        <g>
            <path d="M53.05 0L64 0L64 11.9C64 11.9 61.15 11.95 61.15 11.95C59.0833 11.8833 57.55 11.4333 56.55 10.6C55.5167 9.8 54.7333 8.4 54.2 6.4C54.2 6.4 53.85 4.8 53.85 4.8L53.05 0L53.05 0ZM64 15.8L64 45.25L63.25 45.15C63.25 45.15 55.95 44 55.95 44C53.7833 43.4333 52.2667 42.5833 51.4 41.45C50.4667 40.3833 49.95 38.7333 49.85 36.5C49.85 36.5 49.85 36.2 49.85 36.2C49.7833 34.7667 49.8833 32.3833 50.15 29.05C50.6167 25.4833 51.0167 23.05 51.35 21.75C51.9167 19.5833 52.7667 18.0667 53.9 17.2C54.9667 16.2667 56.6167 15.75 58.85 15.65C58.85 15.65 64 15.8 64 15.8L64 15.8ZM64 48.85L64 64L53.05 64L53 63.7L52.65 58.5C52.65 58.5 52.6 56.85 52.6 56.85C52.7 54.7833 53.1667 53.25 54 52.25C54.7667 51.2167 56.15 50.4333 58.15 49.9C58.15 49.9 64 48.85 64 48.85L64 48.85ZM46.95 64L20.2 64C20.2 64 20.35 61.8 20.35 61.8C20.7167 58.5333 21.0333 56.3 21.3 55.1C21.8 53.1333 22.55 51.75 23.55 50.95C24.5167 50.1167 26.0167 49.6333 28.05 49.5C28.05 49.5 34.8 49.7 34.8 49.7C34.8 49.7 41.5 50.65 41.5 50.65C43.4667 51.15 44.85 51.9 45.65 52.9C46.4833 53.8333 46.9833 55.3333 47.15 57.4C47.15 57.4 47.15 59.4 47.15 59.4L47.15 59.55L47.15 59.65L46.95 64L46.95 64ZM16.1 64L0 64L0 48.85L0.85 48.7C0.85 48.7 7.7 48.3 7.7 48.3C9.76667 48.4 11.3 48.8667 12.3 49.7C13.3333 50.4667 14.1167 51.85 14.65 53.85C14.9833 55.0833 15.3833 57.3333 15.85 60.6C15.85 60.6 16.1 64 16.1 64L16.1 64ZM0 45.25L0 15.8L2.25 15.95C2.25 15.95 9.6 17.15 9.6 17.15C11.7667 17.7167 13.2833 18.5667 14.15 19.7C15.0833 20.7667 15.6 22.4167 15.7 24.65C15.7 24.65 15.7 26.6 15.7 26.6L15.7 26.65L15.35 32.05C15.35 32.05 14.2 39.4 14.2 39.4C13.6333 41.5667 12.7833 43.0833 11.65 43.95C10.5833 44.8833 8.93333 45.4 6.7 45.5C6.7 45.5 0 45.25 0 45.25L0 45.25ZM0 11.9L0 0L16.1 0L16.2 3.4C16.2 3.4 16.1 4.8 16.1 4.8C15.9 6.2 15.4833 7.26667 14.85 8C14.0833 9.03333 12.7 9.83333 10.7 10.4C10.7 10.4 3.95 11.55 3.95 11.55L0 11.9L0 11.9ZM20.2 0L46.95 0L46.9 0.15L46.35 4.8C46.35 4.8 45.95 6.8 45.95 6.8C45.45 8.8 44.7 10.2 43.7 11C42.7333 11.8333 41.2333 12.3333 39.2 12.5C39.2 12.5 32.45 12.25 32.45 12.25C32.45 12.25 25.8 11.3 25.8 11.3C23.8 10.8 22.4 10.05 21.6 9.05C20.8 8.11667 20.3333 6.7 20.2 4.8C20.2 4.8 20.15 4.55 20.15 4.55L20.2 0L20.2 0ZM46.3 32.75C46.3 32.75 46.05 37.55 46.05 37.55C45.7833 39.45 45.2167 40.8333 44.35 41.7C43.55 42.5667 42.2 43.1667 40.3 43.5C40.3 43.5 33.95 44 33.95 44C33.95 44 27.6 43.75 27.6 43.75C25.7 43.4833 24.3333 42.9167 23.5 42.05C22.6 41.2167 21.9833 39.85 21.65 37.95C21.45 36.85 21.3 34.85 21.2 31.95C21.2 31.95 21.2 31.65 21.2 31.65L21.25 30.25C21.25 30.25 21.45 25.3 21.45 25.3C21.6833 23.4 22.2333 22.0167 23.1 21.15C23.9333 20.25 25.3 19.65 27.2 19.35C27.2 19.35 33.5 18.85 33.5 18.85C33.5 18.85 39.85 19.1 39.85 19.1C41.75 19.3667 43.1333 19.9333 44 20.8C44.8667 21.6 45.4667 22.95 45.8 24.85C45.8 24.85 46.3 31.2 46.3 31.2L46.3 32.75L46.3 32.75Z" fill="#FFFFFF"/>
            <path d="M46.3 32.75L46.3 31.2C46.3 31.2 45.8 24.85 45.8 24.85C45.4667 22.95 44.8667 21.6 44 20.8C43.1333 19.9333 41.75 19.3667 39.85 19.1C39.85 19.1 33.5 18.85 33.5 18.85C33.5 18.85 27.2 19.35 27.2 19.35C25.3 19.65 23.9333 20.25 23.1 21.15C22.2333 22.0167 21.6833 23.4 21.45 25.3C21.45 25.3 21.25 30.25 21.25 30.25L21.2 31.65C21.2 31.65 21.2 31.95 21.2 31.95C21.3 34.85 21.45 36.85 21.65 37.95C21.9833 39.85 22.6 41.2167 23.5 42.05C24.3333 42.9167 25.7 43.4833 27.6 43.75C27.6 43.75 33.95 44 33.95 44C33.95 44 40.3 43.5 40.3 43.5C42.2 43.1667 43.55 42.5667 44.35 41.7C45.2167 40.8333 45.7833 39.45 46.05 37.55C46.05 37.55 46.3 32.75 46.3 32.75L46.3 32.75ZM64 11.9L64 15.8C64 15.8 58.85 15.65 58.85 15.65C56.6167 15.75 54.9667 16.2667 53.9 17.2C52.7667 18.0667 51.9167 19.5833 51.35 21.75C51.0167 23.05 50.6167 25.4833 50.15 29.05C49.8833 32.3833 49.7833 34.7667 49.85 36.2C49.85 36.2 49.85 36.5 49.85 36.5C49.95 38.7333 50.4667 40.3833 51.4 41.45C52.2667 42.5833 53.7833 43.4333 55.95 44C55.95 44 63.25 45.15 63.25 45.15L64 45.25L64 48.85C64 48.85 58.15 49.9 58.15 49.9C56.15 50.4333 54.7667 51.2167 54 52.25C53.1667 53.25 52.7 54.7833 52.6 56.85C52.6 56.85 52.65 58.5 52.65 58.5L53 63.7L53.05 64L46.95 64L47.15 59.65L47.15 59.55L47.15 59.4C47.15 59.4 47.15 57.4 47.15 57.4C46.9833 55.3333 46.4833 53.8333 45.65 52.9C44.85 51.9 43.4667 51.15 41.5 50.65C41.5 50.65 34.8 49.7 34.8 49.7C34.8 49.7 28.05 49.5 28.05 49.5C26.0167 49.6333 24.5167 50.1167 23.55 50.95C22.55 51.75 21.8 53.1333 21.3 55.1C21.0333 56.3 20.7167 58.5333 20.35 61.8C20.35 61.8 20.2 64 20.2 64L16.1 64C16.1 64 15.85 60.6 15.85 60.6C15.3833 57.3333 14.9833 55.0833 14.65 53.85C14.1167 51.85 13.3333 50.4667 12.3 49.7C11.3 48.8667 9.76667 48.4 7.7 48.3C7.7 48.3 0.85 48.7 0.85 48.7L0 48.85L0 45.25C0 45.25 6.7 45.5 6.7 45.5C8.93333 45.4 10.5833 44.8833 11.65 43.95C12.7833 43.0833 13.6333 41.5667 14.2 39.4C14.2 39.4 15.35 32.05 15.35 32.05L15.7 26.65L15.7 26.6C15.7 26.6 15.7 24.65 15.7 24.65C15.6 22.4167 15.0833 20.7667 14.15 19.7C13.2833 18.5667 11.7667 17.7167 9.6 17.15C9.6 17.15 2.25 15.95 2.25 15.95L0 15.8L0 11.9L3.95 11.55C3.95 11.55 10.7 10.4 10.7 10.4C12.7 9.83333 14.0833 9.03333 14.85 8C15.4833 7.26667 15.9 6.2 16.1 4.8C16.1 4.8 16.2 3.4 16.2 3.4L16.1 0L20.2 0L20.15 4.55C20.15 4.55 20.2 4.8 20.2 4.8C20.3333 6.7 20.8 8.11667 21.6 9.05C22.4 10.05 23.8 10.8 25.8 11.3C25.8 11.3 32.45 12.25 32.45 12.25C32.45 12.25 39.2 12.5 39.2 12.5C41.2333 12.3333 42.7333 11.8333 43.7 11C44.7 10.2 45.45 8.8 45.95 6.8C45.95 6.8 46.35 4.8 46.35 4.8L46.9 0.15L46.95 0L53.05 0L53.85 4.8C53.85 4.8 54.2 6.4 54.2 6.4C54.7333 8.4 55.5167 9.8 56.55 10.6C57.55 11.4333 59.0833 11.8833 61.15 11.95C61.15 11.95 64 11.9 64 11.9L64 11.9Z" fill="#000000"/>
        </g>
    </symbol>
    <symbol id="ground1" width="64" height="64" viewBox="0 0 64 64" fill="none" xmlns="http://www.w3.org/2000/svg">
        <g>
            <path d="M38.7 0L48.35 0L47.7 5.75L38.15 4.65L38.7 0L38.7 0ZM64 9.25L64 17.3L58.25 18.6L56.5 11.05L64 9.25L64 9.25ZM64 34.4L64 39.9L61.3 40.2L60.65 34.8L64 34.4L64 34.4ZM48.4 64L38.7 64L39.25 59.1L48.8 60.2L48.4 64L48.4 64ZM0 39.9L0 34.4L2.05 34.15L2.7 39.55L0 39.9L0 39.9ZM0 17.3L0 9.25L0.05 9.25L1.85 16.85L0 17.3L0 17.3ZM42 8.45L46.4 11.65L43.25 16.05L38.8 12.9L42 8.45L42 8.45ZM46.45 24L50.2 20.05L54.15 23.8L50.4 27.75L46.45 24L46.45 24ZM36.6 19.2L36.05 24.6L30.65 24.05L31.2 18.65L36.6 19.2L36.6 19.2ZM53.2 30.2L58.3 32.15L56.4 37.3L51.25 35.3L53.2 30.2L53.2 30.2ZM55.25 49.5L60.7 50.05L60.1 55.5L54.7 54.95L55.25 49.5L55.25 49.5ZM44.65 29.65L48.15 33.85L43.9 37.3L40.45 33.1L44.65 29.65L44.65 29.65ZM39.3 51.1L34.35 53.3L32.15 48.35L37.05 46.1L39.3 51.1L39.3 51.1ZM52.5 49.3L45.1 51.65L42.75 44.25L50.15 41.9L52.5 49.3L52.5 49.3ZM27.9 38.45L25.5 31L32.95 28.65L35.3 36.1L27.9 38.45L27.9 38.45ZM10.2 6.6L5.25 8.85L3 3.9L8 1.7L10.2 6.6L10.2 6.6ZM20.7 21.8L18.15 31.7L8.3 29.1L10.85 19.25L20.7 21.8L20.7 21.8ZM19.3 2.9L26.2 9.25L19.85 16.15L12.95 9.8L19.3 2.9L19.3 2.9ZM13.2 45.35L14.75 50L10.15 51.55L8.6 46.95L13.2 45.35L13.2 45.35ZM15.3 38.35L12.15 42.75L7.75 39.55L10.95 35.2L15.3 38.35L15.3 38.35ZM19.65 45.8L29.4 48L27.2 57.75L17.5 55.6L19.65 45.8L19.65 45.8ZM1.8 56.95L7.15 56.1L8 61.45L2.65 62.3L1.8 56.95L1.8 56.95Z" fill="#FFFFFF"/>
            <path d="M1.8 56.95L2.65 62.3L8 61.45L7.15 56.1L1.8 56.95L1.8 56.95ZM48.35 0L64 0L64 9.25L56.5 11.05L58.25 18.6L64 17.3L64 34.4L60.65 34.8L61.3 40.2L64 39.9L64 64L48.4 64L48.8 60.2L39.25 59.1L38.7 64L0 64L0 39.9L2.7 39.55L2.05 34.15L0 34.4L0 17.3L1.85 16.85L0.05 9.25L0 9.25L0 0L38.7 0L38.15 4.65L47.7 5.75L48.35 0L48.35 0ZM19.65 45.8L17.5 55.6L27.2 57.75L29.4 48L19.65 45.8L19.65 45.8ZM15.3 38.35L10.95 35.2L7.75 39.55L12.15 42.75L15.3 38.35L15.3 38.35ZM13.2 45.35L8.6 46.95L10.15 51.55L14.75 50L13.2 45.35L13.2 45.35ZM19.3 2.9L12.95 9.8L19.85 16.15L26.2 9.25L19.3 2.9L19.3 2.9ZM20.7 21.8L10.85 19.25L8.3 29.1L18.15 31.7L20.7 21.8L20.7 21.8ZM10.2 6.6L8 1.7L3 3.9L5.25 8.85L10.2 6.6L10.2 6.6ZM27.9 38.45L35.3 36.1L32.95 28.65L25.5 31L27.9 38.45L27.9 38.45ZM52.5 49.3L50.15 41.9L42.75 44.25L45.1 51.65L52.5 49.3L52.5 49.3ZM39.3 51.1L37.05 46.1L32.15 48.35L34.35 53.3L39.3 51.1L39.3 51.1ZM44.65 29.65L40.45 33.1L43.9 37.3L48.15 33.85L44.65 29.65L44.65 29.65ZM55.25 49.5L54.7 54.95L60.1 55.5L60.7 50.05L55.25 49.5L55.25 49.5ZM53.2 30.2L51.25 35.3L56.4 37.3L58.3 32.15L53.2 30.2L53.2 30.2ZM36.6 19.2L31.2 18.65L30.65 24.05L36.05 24.6L36.6 19.2L36.6 19.2ZM46.45 24L50.4 27.75L54.15 23.8L50.2 20.05L46.45 24L46.45 24ZM42 8.45L38.8 12.9L43.25 16.05L46.4 11.65L42 8.45L42 8.45Z" fill="#000000"/>
        </g>
    </symbol>
    <symbol id="room1" width="64" height="64" viewBox="0 0 64 64" fill="none" xmlns="http://www.w3.org/2000/svg">
        <g>
            <path d="M62 0L64 0L64 2L50 16L64 30L64 34L50 48L64 62L64 64L62 64L48 50L34 64L30 64L16 50L2 64L0 64L0 62L14 48L0 34L0 30L14 16L0 2L0 0L2 0L16 14L30 0L34 0L48 14L62 0L62 0ZM32 2L18 16L32 30L46 16L32 2L32 2ZM34 32L48 46L62 32L48 18L34 32L34 32ZM32 34L18 48L32 62L46 48L32 34L32 34ZM2 32L16 46L30 32L16 18L2 32L2 32Z" fill="#FFFFFF"/>
            <path d="M2 32L16 18L30 32L16 46L2 32L2 32ZM64 2L64 30L50 16L64 2L64 2ZM64 34L64 62L50 48L64 34L64 34ZM62 64L34 64L48 50L62 64L62 64ZM30 64L2 64L16 50L30 64L30 64ZM0 62L0 34L14 48L0 62L0 62ZM0 30L0 2L14 16L0 30L0 30ZM2 0L30 0L16 14L2 0L2 0ZM34 0L62 0L48 14L34 0L34 0ZM32 2L46 16L32 30L18 16L32 2L32 2ZM34 32L48 18L62 32L48 46L34 32L34 32ZM32 34L46 48L32 62L18 48L32 34L32 34Z" fill="#000000"/>
        </g>
    </symbol>
    <symbol id="wall1" width="64" height="64" viewBox="0 0 64 64" fill="none" xmlns="http://www.w3.org/2000/svg">
        <g>
            <path d="M0 1L0 0L64 0L64 1L49 1L49 15L64 15L64 33L49 33L49 47L64 47L64 64L0 64L0 47L15 47L15 33L0 33L0 15L15 15L15 1L0 1L0 1ZM31 49L1 49L1 63L31 63L31 49L31 49ZM31 17L1 17L1 31L31 31L31 17L31 17ZM63 49L33 49L33 63L63 63L63 49L63 49ZM17 33L17 47L47 47L47 33L17 33L17 33ZM17 1L17 15L47 15L47 1L17 1L17 1ZM63 17L33 17L33 31L63 31L63 17L63 17Z" fill="#000000"/>
            <path d="M63 16L63 30L33 30L33 16L63 16L63 16ZM64 0L64 14L49 14L49 0L64 0L64 0ZM64 32L64 46L49 46L49 32L64 32L64 32ZM0 46L0 32L15 32L15 46L0 46L0 46ZM0 14L0 0L15 0L15 14L0 14L0 14ZM17 0L47 0L47 14L17 14L17 0L17 0ZM17 32L47 32L47 46L17 46L17 32L17 32ZM63 48L63 62L33 62L33 48L63 48L63 48ZM31 16L31 30L1 30L1 16L31 16L31 16ZM31 48L31 62L1 62L1 48L31 48L31 48Z" fill="#FFFFFF" transform="translate(0 1)"/>
        </g>
    </symbol>
</svg>