<?xml version="1.0" encoding="utf-8"?>
<svg width="64" height="64" viewBox="0 0 64 64" fill="none" xmlns="http://www.w3.org/2000/svg">
  <g>
    <path d="M60 27C60 27 59.75 26.3 59.75 26.3C59.55 26.1 59.3 26 59 26C58.7333 26 58.5 26.1 58.3 26.3C58.1 26.5 58 26.7333 58 27C58 27.3 58.1 27.55 58.3 27.75C58.5 27.9167 58.7333 28 59 28C59 28 59.75 27.75 59.75 27.75C59.75 27.75 60 27 60 27C60 27 60 27 60 27ZM36 27C36 27 35.75 26.3 35.75 26.3C35.55 26.1 35.3 26 35 26C34.7333 26 34.5 26.1 34.3 26.3C34.1 26.5 34 26.7333 34 27C34 27.3 34.1 27.55 34.3 27.75C34.3 27.75 35 28 35 28C35 28 35.75 27.75 35.75 27.75L36 27C36 27 36 27 36 27ZM36 3C36 3 35.75 2.3 35.75 2.3C35.55 2.1 35.3 2 35 2C34.7333 2 34.5 2.1 34.3 2.3C34.1 2.5 34 2.73333 34 3C34 3.3 34.1 3.55 34.3 3.75C34.3 3.75 35 4 35 4C35 4 35.75 3.75 35.75 3.75L36 3C36 3 36 3 36 3ZM60 3C60 3 59.75 2.3 59.75 2.3C59.55 2.1 59.3 2 59 2C58.7333 2 58.5 2.1 58.3 2.3C58.1 2.5 58 2.73333 58 3C58 3.3 58.1 3.55 58.3 3.75C58.5 3.91667 58.7333 4 59 4C59 4 59.75 3.75 59.75 3.75C59.75 3.75 60 3 60 3C60 3 60 3 60 3ZM62 0C62 0 62 30 62 30L32 30L32 0L62 0C62 0 62 0 62 0ZM60 59C60 59 59.75 58.3 59.75 58.3C59.55 58.1 59.3 58 59 58C58.7333 58 58.5 58.1 58.3 58.3C58.1 58.5 58 58.7333 58 59C58 59.3 58.1 59.55 58.3 59.75C58.5 59.9167 58.7333 60 59 60C59 60 59.75 59.75 59.75 59.75C59.75 59.75 60 59 60 59C60 59 60 59 60 59ZM36 59C36 59 35.75 58.3 35.75 58.3C35.55 58.1 35.3 58 35 58C34.7333 58 34.5 58.1 34.3 58.3C34.1 58.5 34 58.7333 34 59C34 59.3 34.1 59.55 34.3 59.75C34.3 59.75 35 60 35 60C35 60 35.75 59.75 35.75 59.75L36 59C36 59 36 59 36 59ZM36 35C36 35 35.75 34.3 35.75 34.3C35.55 34.1 35.3 34 35 34C34.7333 34 34.5 34.1 34.3 34.3C34.1 34.5 34 34.7333 34 35C34 35.3 34.1 35.55 34.3 35.75C34.3 35.75 35 36 35 36C35 36 35.75 35.75 35.75 35.75L36 35C36 35 36 35 36 35ZM60 35C60 35 59.75 34.3 59.75 34.3C59.55 34.1 59.3 34 59 34C58.7333 34 58.5 34.1 58.3 34.3C58.1 34.5 58 34.7333 58 35C58 35.3 58.1 35.55 58.3 35.75C58.5 35.9167 58.7333 36 59 36C59 36 59.75 35.75 59.75 35.75C59.75 35.75 60 35 60 35C60 35 60 35 60 35ZM62 62C62 62 32 62 32 62L32 32L62 32L62 62C62 62 62 62 62 62ZM28 27C28 27 27.75 26.3 27.75 26.3C27.55 26.1 27.3 26 27 26C26.7333 26 26.5 26.1 26.3 26.3C26.1 26.5 26 26.7333 26 27C26 27.3 26.1 27.55 26.3 27.75C26.3 27.75 27 28 27 28C27 28 27.75 27.75 27.75 27.75L28 27C28 27 28 27 28 27ZM4 27C4 27 3.75 26.3 3.75 26.3C3.55 26.1 3.3 26 3 26C2.73333 26 2.5 26.1 2.3 26.3C2.1 26.5 2 26.7333 2 27C2 27.3 2.1 27.55 2.3 27.75C2.5 27.9167 2.73333 28 3 28C3 28 3.75 27.75 3.75 27.75C3.75 27.75 4 27 4 27C4 27 4 27 4 27ZM4 3C4 3 3.75 2.3 3.75 2.3C3.55 2.1 3.3 2 3 2C2.73333 2 2.5 2.1 2.3 2.3C2.1 2.5 2 2.73333 2 3C2 3.3 2.1 3.55 2.3 3.75C2.5 3.91667 2.73333 4 3 4C3 4 3.75 3.75 3.75 3.75C3.75 3.75 4 3 4 3C4 3 4 3 4 3ZM28 3C28 3 27.75 2.3 27.75 2.3C27.55 2.1 27.3 2 27 2C26.7333 2 26.5 2.1 26.3 2.3C26.1 2.5 26 2.73333 26 3C26 3.3 26.1 3.55 26.3 3.75C26.3 3.75 27 4 27 4C27 4 27.75 3.75 27.75 3.75L28 3C28 3 28 3 28 3ZM0 0C0 0 30 0 30 0L30 30L0 30L0 0C0 0 0 0 0 0ZM28 59C28 59 27.75 58.3 27.75 58.3C27.55 58.1 27.3 58 27 58C26.7333 58 26.5 58.1 26.3 58.3C26.1 58.5 26 58.7333 26 59C26 59.3 26.1 59.55 26.3 59.75C26.3 59.75 27 60 27 60C27 60 27.75 59.75 27.75 59.75L28 59C28 59 28 59 28 59ZM4 59C4 59 3.75 58.3 3.75 58.3C3.55 58.1 3.3 58 3 58C2.73333 58 2.5 58.1 2.3 58.3C2.1 58.5 2 58.7333 2 59C2 59.3 2.1 59.55 2.3 59.75C2.5 59.9167 2.73333 60 3 60C3 60 3.75 59.75 3.75 59.75C3.75 59.75 4 59 4 59C4 59 4 59 4 59ZM4 35C4 35 3.75 34.3 3.75 34.3C3.55 34.1 3.3 34 3 34C2.73333 34 2.5 34.1 2.3 34.3C2.1 34.5 2 34.7333 2 35C2 35.3 2.1 35.55 2.3 35.75C2.5 35.9167 2.73333 36 3 36C3 36 3.75 35.75 3.75 35.75C3.75 35.75 4 35 4 35C4 35 4 35 4 35ZM28 35C28 35 27.75 34.3 27.75 34.3C27.55 34.1 27.3 34 27 34C26.7333 34 26.5 34.1 26.3 34.3C26.1 34.5 26 34.7333 26 35C26 35.3 26.1 35.55 26.3 35.75C26.3 35.75 27 36 27 36C27 36 27.75 35.75 27.75 35.75L28 35C28 35 28 35 28 35ZM0 62C0 62 0 32 0 32L30 32L30 62L0 62C0 62 0 62 0 62Z" fill="#000000" transform="translate(1 1)" />
    <path d="M1 63C1 63 31 63 31 63L31 33L1 33L1 63C1 63 1 63 1 63ZM61 4C61 4 60.75 4.75 60.75 4.75C60.75 4.75 60 5 60 5C59.7333 5 59.5 4.91667 59.3 4.75C59.1 4.55 59 4.3 59 4C59 3.73333 59.1 3.5 59.3 3.3C59.5 3.1 59.7333 3 60 3C60.3 3 60.55 3.1 60.75 3.3C60.75 3.3 61 4 61 4C61 4 61 4 61 4ZM37 4C37 4 36.75 4.75 36.75 4.75C36.75 4.75 36 5 36 5C36 5 35.3 4.75 35.3 4.75C35.1 4.55 35 4.3 35 4C35 3.73333 35.1 3.5 35.3 3.3C35.5 3.1 35.7333 3 36 3C36.3 3 36.55 3.1 36.75 3.3C36.75 3.3 37 4 37 4C37 4 37 4 37 4ZM37 28C37 28 36.75 28.75 36.75 28.75C36.75 28.75 36 29 36 29C36 29 35.3 28.75 35.3 28.75C35.1 28.55 35 28.3 35 28C35 27.7333 35.1 27.5 35.3 27.3C35.5 27.1 35.7333 27 36 27C36.3 27 36.55 27.1 36.75 27.3C36.75 27.3 37 28 37 28C37 28 37 28 37 28ZM61 28C61 28 60.75 28.75 60.75 28.75C60.75 28.75 60 29 60 29C59.7333 29 59.5 28.9167 59.3 28.75C59.1 28.55 59 28.3 59 28C59 27.7333 59.1 27.5 59.3 27.3C59.5 27.1 59.7333 27 60 27C60.3 27 60.55 27.1 60.75 27.3C60.75 27.3 61 28 61 28C61 28 61 28 61 28ZM63 1C63 1 33 1 33 1L33 31L63 31L63 1C63 1 63 1 63 1ZM61 36C61 36 60.75 36.75 60.75 36.75C60.75 36.75 60 37 60 37C59.7333 37 59.5 36.9167 59.3 36.75C59.1 36.55 59 36.3 59 36C59 35.7333 59.1 35.5 59.3 35.3C59.5 35.1 59.7333 35 60 35C60.3 35 60.55 35.1 60.75 35.3C60.75 35.3 61 36 61 36C61 36 61 36 61 36ZM37 36C37 36 36.75 36.75 36.75 36.75C36.75 36.75 36 37 36 37C36 37 35.3 36.75 35.3 36.75C35.1 36.55 35 36.3 35 36C35 35.7333 35.1 35.5 35.3 35.3C35.5 35.1 35.7333 35 36 35C36.3 35 36.55 35.1 36.75 35.3C36.75 35.3 37 36 37 36C37 36 37 36 37 36ZM37 60C37 60 36.75 60.75 36.75 60.75C36.75 60.75 36 61 36 61C36 61 35.3 60.75 35.3 60.75C35.1 60.55 35 60.3 35 60C35 59.7333 35.1 59.5 35.3 59.3C35.5 59.1 35.7333 59 36 59C36.3 59 36.55 59.1 36.75 59.3C36.75 59.3 37 60 37 60C37 60 37 60 37 60ZM61 60C61 60 60.75 60.75 60.75 60.75C60.75 60.75 60 61 60 61C59.7333 61 59.5 60.9167 59.3 60.75C59.1 60.55 59 60.3 59 60C59 59.7333 59.1 59.5 59.3 59.3C59.5 59.1 59.7333 59 60 59C60.3 59 60.55 59.1 60.75 59.3C60.75 59.3 61 60 61 60C61 60 61 60 61 60ZM63 63C63 63 63 33 63 33L33 33L33 63L63 63C63 63 63 63 63 63ZM64 64C64 64 0 64 0 64L0 0L64 0L64 64C64 64 64 64 64 64ZM29 4C29 4 28.75 4.75 28.75 4.75C28.75 4.75 28 5 28 5C28 5 27.3 4.75 27.3 4.75C27.1 4.55 27 4.3 27 4C27 3.73333 27.1 3.5 27.3 3.3C27.5 3.1 27.7333 3 28 3C28.3 3 28.55 3.1 28.75 3.3C28.75 3.3 29 4 29 4C29 4 29 4 29 4ZM5 4C5 4 4.75 4.75 4.75 4.75C4.75 4.75 4 5 4 5C3.73333 5 3.5 4.91667 3.3 4.75C3.1 4.55 3 4.3 3 4C3 3.73333 3.1 3.5 3.3 3.3C3.5 3.1 3.73333 3 4 3C4.3 3 4.55 3.1 4.75 3.3C4.75 3.3 5 4 5 4C5 4 5 4 5 4ZM5 28C5 28 4.75 28.75 4.75 28.75C4.75 28.75 4 29 4 29C3.73333 29 3.5 28.9167 3.3 28.75C3.1 28.55 3 28.3 3 28C3 27.7333 3.1 27.5 3.3 27.3C3.5 27.1 3.73333 27 4 27C4.3 27 4.55 27.1 4.75 27.3C4.75 27.3 5 28 5 28C5 28 5 28 5 28ZM29 28C29 28 28.75 28.75 28.75 28.75C28.75 28.75 28 29 28 29C28 29 27.3 28.75 27.3 28.75C27.1 28.55 27 28.3 27 28C27 27.7333 27.1 27.5 27.3 27.3C27.5 27.1 27.7333 27 28 27C28.3 27 28.55 27.1 28.75 27.3C28.75 27.3 29 28 29 28C29 28 29 28 29 28ZM1 1C1 1 1 31 1 31L31 31L31 1L1 1C1 1 1 1 1 1ZM29 36C29 36 28.75 36.75 28.75 36.75C28.75 36.75 28 37 28 37C28 37 27.3 36.75 27.3 36.75C27.1 36.55 27 36.3 27 36C27 35.7333 27.1 35.5 27.3 35.3C27.5 35.1 27.7333 35 28 35C28.3 35 28.55 35.1 28.75 35.3C28.75 35.3 29 36 29 36C29 36 29 36 29 36ZM5 36C5 36 4.75 36.75 4.75 36.75C4.75 36.75 4 37 4 37C3.73333 37 3.5 36.9167 3.3 36.75C3.1 36.55 3 36.3 3 36C3 35.7333 3.1 35.5 3.3 35.3C3.5 35.1 3.73333 35 4 35C4.3 35 4.55 35.1 4.75 35.3C4.75 35.3 5 36 5 36C5 36 5 36 5 36ZM5 60C5 60 4.75 60.75 4.75 60.75C4.75 60.75 4 61 4 61C3.73333 61 3.5 60.9167 3.3 60.75C3.1 60.55 3 60.3 3 60C3 59.7333 3.1 59.5 3.3 59.3C3.5 59.1 3.73333 59 4 59C4.3 59 4.55 59.1 4.75 59.3C4.75 59.3 5 60 5 60C5 60 5 60 5 60ZM29 60C29 60 28.75 60.75 28.75 60.75C28.75 60.75 28 61 28 61C28 61 27.3 60.75 27.3 60.75C27.1 60.55 27 60.3 27 60C27 59.7333 27.1 59.5 27.3 59.3C27.5 59.1 27.7333 59 28 59C28.3 59 28.55 59.1 28.75 59.3C28.75 59.3 29 60 29 60C29 60 29 60 29 60Z" fill="#FFFFFF" />
  </g>
</svg>