<?xml version="1.0" encoding="utf-8"?>
<svg width="64" height="64" viewBox="0 0 64 64" fill="none" xmlns="http://www.w3.org/2000/svg">
  <g>
    <path d="M53.05 0L64 0L64 11.9C64 11.9 61.15 11.95 61.15 11.95C59.0833 11.8833 57.55 11.4333 56.55 10.6C55.5167 9.8 54.7333 8.4 54.2 6.4C54.2 6.4 53.85 4.8 53.85 4.8L53.05 0L53.05 0ZM64 15.8L64 45.25L63.25 45.15C63.25 45.15 55.95 44 55.95 44C53.7833 43.4333 52.2667 42.5833 51.4 41.45C50.4667 40.3833 49.95 38.7333 49.85 36.5C49.85 36.5 49.85 36.2 49.85 36.2C49.7833 34.7667 49.8833 32.3833 50.15 29.05C50.6167 25.4833 51.0167 23.05 51.35 21.75C51.9167 19.5833 52.7667 18.0667 53.9 17.2C54.9667 16.2667 56.6167 15.75 58.85 15.65C58.85 15.65 64 15.8 64 15.8L64 15.8ZM64 48.85L64 64L53.05 64L53 63.7L52.65 58.5C52.65 58.5 52.6 56.85 52.6 56.85C52.7 54.7833 53.1667 53.25 54 52.25C54.7667 51.2167 56.15 50.4333 58.15 49.9C58.15 49.9 64 48.85 64 48.85L64 48.85ZM46.95 64L20.2 64C20.2 64 20.35 61.8 20.35 61.8C20.7167 58.5333 21.0333 56.3 21.3 55.1C21.8 53.1333 22.55 51.75 23.55 50.95C24.5167 50.1167 26.0167 49.6333 28.05 49.5C28.05 49.5 34.8 49.7 34.8 49.7C34.8 49.7 41.5 50.65 41.5 50.65C43.4667 51.15 44.85 51.9 45.65 52.9C46.4833 53.8333 46.9833 55.3333 47.15 57.4C47.15 57.4 47.15 59.4 47.15 59.4L47.15 59.55L47.15 59.65L46.95 64L46.95 64ZM16.1 64L0 64L0 48.85L0.85 48.7C0.85 48.7 7.7 48.3 7.7 48.3C9.76667 48.4 11.3 48.8667 12.3 49.7C13.3333 50.4667 14.1167 51.85 14.65 53.85C14.9833 55.0833 15.3833 57.3333 15.85 60.6C15.85 60.6 16.1 64 16.1 64L16.1 64ZM0 45.25L0 15.8L2.25 15.95C2.25 15.95 9.6 17.15 9.6 17.15C11.7667 17.7167 13.2833 18.5667 14.15 19.7C15.0833 20.7667 15.6 22.4167 15.7 24.65C15.7 24.65 15.7 26.6 15.7 26.6L15.7 26.65L15.35 32.05C15.35 32.05 14.2 39.4 14.2 39.4C13.6333 41.5667 12.7833 43.0833 11.65 43.95C10.5833 44.8833 8.93333 45.4 6.7 45.5C6.7 45.5 0 45.25 0 45.25L0 45.25ZM0 11.9L0 0L16.1 0L16.2 3.4C16.2 3.4 16.1 4.8 16.1 4.8C15.9 6.2 15.4833 7.26667 14.85 8C14.0833 9.03333 12.7 9.83333 10.7 10.4C10.7 10.4 3.95 11.55 3.95 11.55L0 11.9L0 11.9ZM20.2 0L46.95 0L46.9 0.15L46.35 4.8C46.35 4.8 45.95 6.8 45.95 6.8C45.45 8.8 44.7 10.2 43.7 11C42.7333 11.8333 41.2333 12.3333 39.2 12.5C39.2 12.5 32.45 12.25 32.45 12.25C32.45 12.25 25.8 11.3 25.8 11.3C23.8 10.8 22.4 10.05 21.6 9.05C20.8 8.11667 20.3333 6.7 20.2 4.8C20.2 4.8 20.15 4.55 20.15 4.55L20.2 0L20.2 0ZM46.3 32.75C46.3 32.75 46.05 37.55 46.05 37.55C45.7833 39.45 45.2167 40.8333 44.35 41.7C43.55 42.5667 42.2 43.1667 40.3 43.5C40.3 43.5 33.95 44 33.95 44C33.95 44 27.6 43.75 27.6 43.75C25.7 43.4833 24.3333 42.9167 23.5 42.05C22.6 41.2167 21.9833 39.85 21.65 37.95C21.45 36.85 21.3 34.85 21.2 31.95C21.2 31.95 21.2 31.65 21.2 31.65L21.25 30.25C21.25 30.25 21.45 25.3 21.45 25.3C21.6833 23.4 22.2333 22.0167 23.1 21.15C23.9333 20.25 25.3 19.65 27.2 19.35C27.2 19.35 33.5 18.85 33.5 18.85C33.5 18.85 39.85 19.1 39.85 19.1C41.75 19.3667 43.1333 19.9333 44 20.8C44.8667 21.6 45.4667 22.95 45.8 24.85C45.8 24.85 46.3 31.2 46.3 31.2L46.3 32.75L46.3 32.75Z" fill="#FFFFFF" />
    <path d="M46.3 32.75L46.3 31.2C46.3 31.2 45.8 24.85 45.8 24.85C45.4667 22.95 44.8667 21.6 44 20.8C43.1333 19.9333 41.75 19.3667 39.85 19.1C39.85 19.1 33.5 18.85 33.5 18.85C33.5 18.85 27.2 19.35 27.2 19.35C25.3 19.65 23.9333 20.25 23.1 21.15C22.2333 22.0167 21.6833 23.4 21.45 25.3C21.45 25.3 21.25 30.25 21.25 30.25L21.2 31.65C21.2 31.65 21.2 31.95 21.2 31.95C21.3 34.85 21.45 36.85 21.65 37.95C21.9833 39.85 22.6 41.2167 23.5 42.05C24.3333 42.9167 25.7 43.4833 27.6 43.75C27.6 43.75 33.95 44 33.95 44C33.95 44 40.3 43.5 40.3 43.5C42.2 43.1667 43.55 42.5667 44.35 41.7C45.2167 40.8333 45.7833 39.45 46.05 37.55C46.05 37.55 46.3 32.75 46.3 32.75L46.3 32.75ZM64 11.9L64 15.8C64 15.8 58.85 15.65 58.85 15.65C56.6167 15.75 54.9667 16.2667 53.9 17.2C52.7667 18.0667 51.9167 19.5833 51.35 21.75C51.0167 23.05 50.6167 25.4833 50.15 29.05C49.8833 32.3833 49.7833 34.7667 49.85 36.2C49.85 36.2 49.85 36.5 49.85 36.5C49.95 38.7333 50.4667 40.3833 51.4 41.45C52.2667 42.5833 53.7833 43.4333 55.95 44C55.95 44 63.25 45.15 63.25 45.15L64 45.25L64 48.85C64 48.85 58.15 49.9 58.15 49.9C56.15 50.4333 54.7667 51.2167 54 52.25C53.1667 53.25 52.7 54.7833 52.6 56.85C52.6 56.85 52.65 58.5 52.65 58.5L53 63.7L53.05 64L46.95 64L47.15 59.65L47.15 59.55L47.15 59.4C47.15 59.4 47.15 57.4 47.15 57.4C46.9833 55.3333 46.4833 53.8333 45.65 52.9C44.85 51.9 43.4667 51.15 41.5 50.65C41.5 50.65 34.8 49.7 34.8 49.7C34.8 49.7 28.05 49.5 28.05 49.5C26.0167 49.6333 24.5167 50.1167 23.55 50.95C22.55 51.75 21.8 53.1333 21.3 55.1C21.0333 56.3 20.7167 58.5333 20.35 61.8C20.35 61.8 20.2 64 20.2 64L16.1 64C16.1 64 15.85 60.6 15.85 60.6C15.3833 57.3333 14.9833 55.0833 14.65 53.85C14.1167 51.85 13.3333 50.4667 12.3 49.7C11.3 48.8667 9.76667 48.4 7.7 48.3C7.7 48.3 0.85 48.7 0.85 48.7L0 48.85L0 45.25C0 45.25 6.7 45.5 6.7 45.5C8.93333 45.4 10.5833 44.8833 11.65 43.95C12.7833 43.0833 13.6333 41.5667 14.2 39.4C14.2 39.4 15.35 32.05 15.35 32.05L15.7 26.65L15.7 26.6C15.7 26.6 15.7 24.65 15.7 24.65C15.6 22.4167 15.0833 20.7667 14.15 19.7C13.2833 18.5667 11.7667 17.7167 9.6 17.15C9.6 17.15 2.25 15.95 2.25 15.95L0 15.8L0 11.9L3.95 11.55C3.95 11.55 10.7 10.4 10.7 10.4C12.7 9.83333 14.0833 9.03333 14.85 8C15.4833 7.26667 15.9 6.2 16.1 4.8C16.1 4.8 16.2 3.4 16.2 3.4L16.1 0L20.2 0L20.15 4.55C20.15 4.55 20.2 4.8 20.2 4.8C20.3333 6.7 20.8 8.11667 21.6 9.05C22.4 10.05 23.8 10.8 25.8 11.3C25.8 11.3 32.45 12.25 32.45 12.25C32.45 12.25 39.2 12.5 39.2 12.5C41.2333 12.3333 42.7333 11.8333 43.7 11C44.7 10.2 45.45 8.8 45.95 6.8C45.95 6.8 46.35 4.8 46.35 4.8L46.9 0.15L46.95 0L53.05 0L53.85 4.8C53.85 4.8 54.2 6.4 54.2 6.4C54.7333 8.4 55.5167 9.8 56.55 10.6C57.55 11.4333 59.0833 11.8833 61.15 11.95C61.15 11.95 64 11.9 64 11.9L64 11.9Z" fill="#000000" />
  </g>
</svg>