<?xml version="1.0" encoding="utf-8"?>
<svg width="64" height="64" viewBox="0 0 64 64" fill="none" xmlns="http://www.w3.org/2000/svg">
  <g>
    <path d="M45.7 0C45.7 0 44.45 1.4 44.45 1.4C43.75 2.36667 43.4167 3.23333 43.45 4C43.4167 4.73333 43.75 5.58333 44.45 6.55C44.45 6.55 47.1 9.5 47.1 9.5C47.1 9.5 50.05 12.15 50.05 12.15C51.0167 12.85 51.8667 13.1833 52.6 13.15C53.3667 13.1833 54.2333 12.85 55.2 12.15C55.2 12.15 58.15 9.5 58.15 9.5C58.15 9.5 60.75 6.55 60.75 6.55C61.45 5.58333 61.8 4.73333 61.8 4C61.8 3.23333 61.45 2.36667 60.75 1.4C60.75 1.4 59.55 0 59.55 0L64 0L64 3.55C64 3.55 63.55 4.05 63.55 4.05C62.7833 4.95 62.3833 5.76667 62.35 6.5C62.25 7.26667 62.5333 8.15 63.2 9.15C63.2 9.15 64 10.3 64 10.3C64 10.3 64 13.55 64 13.55C62.6 12.5167 61.35 12.0167 60.25 12.05C59.15 12.0167 57.9 12.5167 56.5 13.55C56.5 13.55 52.15 17.4 52.15 17.4C50.2167 19.4333 48.9333 20.8833 48.3 21.75C47.2667 23.1833 46.7667 24.45 46.8 25.55C46.7667 26.65 47.2667 27.9 48.3 29.3C48.3 29.3 52.15 33.65 52.15 33.65C52.15 33.65 56.5 37.5 56.5 37.5C57.9 38.5333 59.15 39.0333 60.25 39C61.35 39.0333 62.6 38.55 64 37.55C64 37.55 64 50 64 50C63.4333 49.6667 62.9333 49.5 62.5 49.5C61.9667 49.5 61.3667 49.7333 60.7 50.2C60.3 50.5 59.6167 51.1167 58.65 52.05C58.65 52.05 56.85 54.05 56.85 54.05C56.35 54.75 56.1167 55.35 56.15 55.85C56.1167 56.3833 56.35 56.9833 56.85 57.65C56.85 57.65 58.65 59.7 58.65 59.7C58.65 59.7 60.7 61.5 60.7 61.5C61.3667 62 61.9667 62.2333 62.5 62.2C62.9333 62.2333 63.4333 62.0667 64 61.7C64 61.7 64 64 64 64L59.6 64L58.15 62.45C58.15 62.45 55.2 59.85 55.2 59.85C54.2333 59.15 53.3667 58.8 52.6 58.8C51.8667 58.8 51.0167 59.15 50.05 59.85C50.05 59.85 47.1 62.45 47.1 62.45L45.65 64C45.65 64 41.55 64 41.55 64C41.5833 62.9667 41.1 61.7833 40.1 60.45C40.1 60.45 36.4 56.25 36.4 56.25C36.4 56.25 32.25 52.55 32.25 52.55C30.8833 51.55 29.6667 51.0667 28.6 51.1C27.5667 51.0667 26.3667 51.55 25 52.55C25 52.55 20.85 56.25 20.85 56.25C18.9833 58.2167 17.75 59.6167 17.15 60.45C16.15 61.7833 15.6667 62.9667 15.7 64C15.7 64 11.4 64 11.4 64C11.4 64 10.65 63.25 10.65 63.25C9.71667 62.45 8.88333 62.05 8.15 62.05C7.38333 61.95 6.5 62.2167 5.5 62.85C5.5 62.85 4 64 4 64L0 64L0 61.75L0.3 61.5L2.35 59.7C2.35 59.7 4.15 57.65 4.15 57.65C4.65 56.9833 4.88333 56.3833 4.85 55.85C4.88333 55.35 4.65 54.75 4.15 54.05C4.15 54.05 2.35 52.05 2.35 52.05L0.3 50.2L0 50L0 37.55L0.05 37.5L4.35 33.65C4.35 33.65 8.2 29.3 8.2 29.3C9.23333 27.9 9.73333 26.65 9.7 25.55C9.73333 24.45 9.23333 23.1833 8.2 21.75C8.2 21.75 4.35 17.4 4.35 17.4L0.05 13.55L0 13.55L0 10.3L1.55 12.3C1.55 12.3 4.3 15.15 4.3 15.15C5.2 15.9167 6.03333 16.3167 6.8 16.35C7.53333 16.4167 8.41667 16.1333 9.45 15.5C9.45 15.5 12.55 13.1 12.55 13.1C12.55 13.1 15.4 10.35 15.4 10.35C16.1667 9.45 16.5667 8.61667 16.6 7.85C16.7 7.11667 16.4333 6.23333 15.8 5.2C15.8 5.2 13.4 2.05 13.4 2.05L11.4 0C11.4 0 15.7 0 15.7 0C15.6667 1.06667 16.15 2.28333 17.15 3.65C17.75 4.48333 18.9833 5.86667 20.85 7.8C20.85 7.8 25 11.5 25 11.5C26.3667 12.5 27.5667 12.9833 28.6 12.95C29.6667 12.9833 30.8833 12.5 32.25 11.5C32.25 11.5 36.4 7.8 36.4 7.8C36.4 7.8 40.1 3.65 40.1 3.65C41.1 2.28333 41.5833 1.06667 41.55 0C41.55 0 45.7 0 45.7 0L45.7 0ZM39.6 24.95C39.6 24.95 36 21.35 36 21.35C34.8 20.35 33.7167 19.8333 32.75 19.8C31.7833 19.7333 30.65 20.1167 29.35 20.95C29.35 20.95 25.35 24.1 25.35 24.1C25.35 24.1 21.75 27.7 21.75 27.7C20.7833 28.9 20.2833 29.9833 20.25 30.95C20.15 31.8833 20.5167 33.0167 21.35 34.35C21.35 34.35 24.55 38.35 24.55 38.35C24.55 38.35 28.15 41.95 28.15 41.95C29.35 42.9167 30.4167 43.4 31.35 43.4C32.3167 43.5 33.45 43.1333 34.75 42.3C34.75 42.3 38.75 39.15 38.75 39.15C38.75 39.15 42.35 35.55 42.35 35.55C43.35 34.35 43.8667 33.2667 43.9 32.3C43.9667 31.3333 43.5833 30.2167 42.75 28.95C42.75 28.95 39.6 24.95 39.6 24.95L39.6 24.95ZM44.9 10.85C44.9 10.85 42.85 9.05 42.85 9.05C42.1833 8.55 41.5833 8.3 41.05 8.3C40.55 8.3 39.9667 8.55 39.3 9.05C39.3 9.05 37.25 10.85 37.25 10.85C36.3167 11.8167 35.7 12.5 35.4 12.9C34.9333 13.5667 34.7 14.15 34.7 14.65C34.7 15.1833 34.9333 15.7833 35.4 16.45C35.4 16.45 37.25 18.5 37.25 18.5C37.25 18.5 39.3 20.35 39.3 20.35C39.9667 20.8167 40.55 21.05 41.05 21.05C41.5833 21.05 42.1833 20.8167 42.85 20.35C42.85 20.35 44.9 18.5 44.9 18.5C44.9 18.5 46.7 16.45 46.7 16.45C47.2 15.7833 47.4333 15.1833 47.4 14.65C47.4333 14.15 47.2 13.5667 46.7 12.9C46.7 12.9 44.9 10.85 44.9 10.85L44.9 10.85ZM55.25 40.7C55.25 40.7 52.3 38.05 52.3 38.05C51.3333 37.35 50.4667 37.0167 49.7 37.05C48.9667 37.0167 48.1167 37.35 47.15 38.05C47.15 38.05 44.2 40.7 44.2 40.7C44.2 40.7 41.6 43.65 41.6 43.65C40.8667 44.6167 40.5167 45.4667 40.55 46.2C40.5167 46.9667 40.8667 47.8333 41.6 48.8C41.6 48.8 44.2 51.75 44.2 51.75C44.2 51.75 47.15 54.4 47.15 54.4C48.1167 55.1 48.9667 55.4333 49.7 55.4C50.4667 55.4333 51.3333 55.1 52.3 54.4C52.3 54.4 55.25 51.75 55.25 51.75C55.25 51.75 57.9 48.8 57.9 48.8C58.6 47.8333 58.9333 46.9667 58.9 46.2C58.9333 45.4667 58.6 44.6167 57.9 43.65C57.9 43.65 55.25 40.7 55.25 40.7L55.25 40.7ZM0 3.55L0 0L4 0L2.35 1.25L0 3.55L0 3.55ZM22.3 16.3C22.3 16.3 20.5 14.2 20.5 14.2C19.9 13.6 19.35 13.2667 18.85 13.2C18.35 13.1333 17.7333 13.2833 17 13.65C17 13.65 14.7 15.15 14.7 15.15C14.7 15.15 12.6 16.95 12.6 16.95C12.0333 17.55 11.7167 18.1 11.65 18.6C11.55 19.1 11.7 19.7167 12.1 20.45C12.1 20.45 13.6 22.75 13.6 22.75C13.6 22.75 15.35 24.85 15.35 24.85C15.95 25.45 16.5 25.7667 17 25.8C17.5333 25.9 18.15 25.75 18.85 25.35C18.85 25.35 21.15 23.85 21.15 23.85C21.15 23.85 23.25 22.1 23.25 22.1C23.85 21.5 24.1667 20.95 24.2 20.45C24.3 19.9167 24.1667 19.3 23.8 18.6C23.8 18.6 22.3 16.3 22.3 16.3L22.3 16.3ZM18.45 37.55C18.45 37.55 15.2 35.25 15.2 35.25C14.1667 34.65 13.2833 34.4 12.55 34.5C11.7833 34.5667 10.9667 35 10.1 35.8C10.1 35.8 7.45 38.75 7.45 38.75C7.45 38.75 5.2 42 5.2 42C4.6 43.0333 4.35 43.9167 4.45 44.65C4.48333 45.3833 4.91667 46.2 5.75 47.1C5.75 47.1 8.65 49.75 8.65 49.75C8.65 49.75 11.9 52 11.9 52C12.9333 52.6 13.8167 52.85 14.55 52.75C15.3167 52.6833 16.1333 52.25 17 51.45C17 51.45 19.65 48.5 19.65 48.5C19.65 48.5 21.95 45.3 21.95 45.3C22.55 44.2667 22.7833 43.3667 22.65 42.6C22.6167 41.8667 22.1833 41.05 21.35 40.15C21.35 40.15 18.45 37.55 18.45 37.55L18.45 37.55Z" fill="#000000" />
    <path d="M18.45 37.55C18.45 37.55 21.35 40.15 21.35 40.15C22.1833 41.05 22.6167 41.8667 22.65 42.6C22.7833 43.3667 22.55 44.2667 21.95 45.3C21.95 45.3 19.65 48.5 19.65 48.5C19.65 48.5 17 51.45 17 51.45C16.1333 52.25 15.3167 52.6833 14.55 52.75C13.8167 52.85 12.9333 52.6 11.9 52C11.9 52 8.65 49.75 8.65 49.75C8.65 49.75 5.75 47.1 5.75 47.1C4.91667 46.2 4.48333 45.3833 4.45 44.65C4.35 43.9167 4.6 43.0333 5.2 42C5.2 42 7.45 38.75 7.45 38.75C7.45 38.75 10.1 35.8 10.1 35.8C10.9667 35 11.7833 34.5667 12.55 34.5C13.2833 34.4 14.1667 34.65 15.2 35.25C15.2 35.25 18.45 37.55 18.45 37.55L18.45 37.55ZM59.55 0C59.55 0 60.75 1.4 60.75 1.4C61.45 2.36667 61.8 3.23333 61.8 4C61.8 4.73333 61.45 5.58333 60.75 6.55C60.75 6.55 58.15 9.5 58.15 9.5C58.15 9.5 55.2 12.15 55.2 12.15C54.2333 12.85 53.3667 13.1833 52.6 13.15C51.8667 13.1833 51.0167 12.85 50.05 12.15C50.05 12.15 47.1 9.5 47.1 9.5C47.1 9.5 44.45 6.55 44.45 6.55C43.75 5.58333 43.4167 4.73333 43.45 4C43.4167 3.23333 43.75 2.36667 44.45 1.4C44.45 1.4 45.7 0 45.7 0L59.55 0L59.55 0ZM41.55 0C41.5833 1.06667 41.1 2.28333 40.1 3.65C40.1 3.65 36.4 7.8 36.4 7.8C36.4 7.8 32.25 11.5 32.25 11.5C30.8833 12.5 29.6667 12.9833 28.6 12.95C27.5667 12.9833 26.3667 12.5 25 11.5C25 11.5 20.85 7.8 20.85 7.8C18.9833 5.86667 17.75 4.48333 17.15 3.65C16.15 2.28333 15.6667 1.06667 15.7 0C15.7 0 41.55 0 41.55 0C41.55 0 41.55 0 41.55 0ZM11.4 0L13.4 2.05C13.4 2.05 15.8 5.2 15.8 5.2C16.4333 6.23333 16.7 7.11667 16.6 7.85C16.5667 8.61667 16.1667 9.45 15.4 10.35C15.4 10.35 12.55 13.1 12.55 13.1C12.55 13.1 9.45 15.5 9.45 15.5C8.41667 16.1333 7.53333 16.4167 6.8 16.35C6.03333 16.3167 5.2 15.9167 4.3 15.15C4.3 15.15 1.55 12.3 1.55 12.3L0 10.3L0 3.55L2.35 1.25L4 0L11.4 0L11.4 0ZM0 13.55L0.05 13.55L4.35 17.4C4.35 17.4 8.2 21.75 8.2 21.75C9.23333 23.1833 9.73333 24.45 9.7 25.55C9.73333 26.65 9.23333 27.9 8.2 29.3C8.2 29.3 4.35 33.65 4.35 33.65L0.05 37.5L0 37.55L0 13.55L0 13.55ZM0 50L0.3 50.2L2.35 52.05C2.35 52.05 4.15 54.05 4.15 54.05C4.65 54.75 4.88333 55.35 4.85 55.85C4.88333 56.3833 4.65 56.9833 4.15 57.65C4.15 57.65 2.35 59.7 2.35 59.7L0.3 61.5L0 61.75L0 50L0 50ZM4 64C4 64 5.5 62.85 5.5 62.85C6.5 62.2167 7.38333 61.95 8.15 62.05C8.88333 62.05 9.71667 62.45 10.65 63.25C10.65 63.25 11.4 64 11.4 64L4 64L4 64ZM15.7 64C15.6667 62.9667 16.15 61.7833 17.15 60.45C17.75 59.6167 18.9833 58.2167 20.85 56.25C20.85 56.25 25 52.55 25 52.55C26.3667 51.55 27.5667 51.0667 28.6 51.1C29.6667 51.0667 30.8833 51.55 32.25 52.55C32.25 52.55 36.4 56.25 36.4 56.25C36.4 56.25 40.1 60.45 40.1 60.45C41.1 61.7833 41.5833 62.9667 41.55 64C41.55 64 15.7 64 15.7 64C15.7 64 15.7 64 15.7 64ZM45.65 64L47.1 62.45C47.1 62.45 50.05 59.85 50.05 59.85C51.0167 59.15 51.8667 58.8 52.6 58.8C53.3667 58.8 54.2333 59.15 55.2 59.85C55.2 59.85 58.15 62.45 58.15 62.45L59.6 64L45.65 64L45.65 64ZM64 61.7C63.4333 62.0667 62.9333 62.2333 62.5 62.2C61.9667 62.2333 61.3667 62 60.7 61.5C60.7 61.5 58.65 59.7 58.65 59.7C58.65 59.7 56.85 57.65 56.85 57.65C56.35 56.9833 56.1167 56.3833 56.15 55.85C56.1167 55.35 56.35 54.75 56.85 54.05C56.85 54.05 58.65 52.05 58.65 52.05C59.6167 51.1167 60.3 50.5 60.7 50.2C61.3667 49.7333 61.9667 49.5 62.5 49.5C62.9333 49.5 63.4333 49.6667 64 50C64 50 64 61.7 64 61.7C64 61.7 64 61.7 64 61.7ZM64 37.55C62.6 38.55 61.35 39.0333 60.25 39C59.15 39.0333 57.9 38.5333 56.5 37.5C56.5 37.5 52.15 33.65 52.15 33.65C52.15 33.65 48.3 29.3 48.3 29.3C47.2667 27.9 46.7667 26.65 46.8 25.55C46.7667 24.45 47.2667 23.1833 48.3 21.75C48.9333 20.8833 50.2167 19.4333 52.15 17.4C52.15 17.4 56.5 13.55 56.5 13.55C57.9 12.5167 59.15 12.0167 60.25 12.05C61.35 12.0167 62.6 12.5167 64 13.55C64 13.55 64 37.55 64 37.55C64 37.55 64 37.55 64 37.55ZM64 10.3C64 10.3 63.2 9.15 63.2 9.15C62.5333 8.15 62.25 7.26667 62.35 6.5C62.3833 5.76667 62.7833 4.95 63.55 4.05C63.55 4.05 64 3.55 64 3.55L64 10.3L64 10.3ZM44.9 10.85C44.9 10.85 46.7 12.9 46.7 12.9C47.2 13.5667 47.4333 14.15 47.4 14.65C47.4333 15.1833 47.2 15.7833 46.7 16.45C46.7 16.45 44.9 18.5 44.9 18.5C44.9 18.5 42.85 20.35 42.85 20.35C42.1833 20.8167 41.5833 21.05 41.05 21.05C40.55 21.05 39.9667 20.8167 39.3 20.35C39.3 20.35 37.25 18.5 37.25 18.5C37.25 18.5 35.4 16.45 35.4 16.45C34.9333 15.7833 34.7 15.1833 34.7 14.65C34.7 14.15 34.9333 13.5667 35.4 12.9C35.7 12.5 36.3167 11.8167 37.25 10.85C37.25 10.85 39.3 9.05 39.3 9.05C39.9667 8.55 40.55 8.3 41.05 8.3C41.5833 8.3 42.1833 8.55 42.85 9.05C42.85 9.05 44.9 10.85 44.9 10.85L44.9 10.85ZM39.6 24.95C39.6 24.95 42.75 28.95 42.75 28.95C43.5833 30.2167 43.9667 31.3333 43.9 32.3C43.8667 33.2667 43.35 34.35 42.35 35.55C42.35 35.55 38.75 39.15 38.75 39.15C38.75 39.15 34.75 42.3 34.75 42.3C33.45 43.1333 32.3167 43.5 31.35 43.4C30.4167 43.4 29.35 42.9167 28.15 41.95C28.15 41.95 24.55 38.35 24.55 38.35C24.55 38.35 21.35 34.35 21.35 34.35C20.5167 33.0167 20.15 31.8833 20.25 30.95C20.2833 29.9833 20.7833 28.9 21.75 27.7C21.75 27.7 25.35 24.1 25.35 24.1C25.35 24.1 29.35 20.95 29.35 20.95C30.65 20.1167 31.7833 19.7333 32.75 19.8C33.7167 19.8333 34.8 20.35 36 21.35C36 21.35 39.6 24.95 39.6 24.95L39.6 24.95ZM55.25 40.7C55.25 40.7 57.9 43.65 57.9 43.65C58.6 44.6167 58.9333 45.4667 58.9 46.2C58.9333 46.9667 58.6 47.8333 57.9 48.8C57.9 48.8 55.25 51.75 55.25 51.75C55.25 51.75 52.3 54.4 52.3 54.4C51.3333 55.1 50.4667 55.4333 49.7 55.4C48.9667 55.4333 48.1167 55.1 47.15 54.4C47.15 54.4 44.2 51.75 44.2 51.75C44.2 51.75 41.6 48.8 41.6 48.8C40.8667 47.8333 40.5167 46.9667 40.55 46.2C40.5167 45.4667 40.8667 44.6167 41.6 43.65C41.6 43.65 44.2 40.7 44.2 40.7C44.2 40.7 47.15 38.05 47.15 38.05C48.1167 37.35 48.9667 37.0167 49.7 37.05C50.4667 37.0167 51.3333 37.35 52.3 38.05C52.3 38.05 55.25 40.7 55.25 40.7L55.25 40.7ZM22.3 16.3C22.3 16.3 23.8 18.6 23.8 18.6C24.1667 19.3 24.3 19.9167 24.2 20.45C24.1667 20.95 23.85 21.5 23.25 22.1C23.25 22.1 21.15 23.85 21.15 23.85C21.15 23.85 18.85 25.35 18.85 25.35C18.15 25.75 17.5333 25.9 17 25.8C16.5 25.7667 15.95 25.45 15.35 24.85C15.35 24.85 13.6 22.75 13.6 22.75C13.6 22.75 12.1 20.45 12.1 20.45C11.7 19.7167 11.55 19.1 11.65 18.6C11.7167 18.1 12.0333 17.55 12.6 16.95C12.6 16.95 14.7 15.15 14.7 15.15C14.7 15.15 17 13.65 17 13.65C17.7333 13.2833 18.35 13.1333 18.85 13.2C19.35 13.2667 19.9 13.6 20.5 14.2C20.5 14.2 22.3 16.3 22.3 16.3L22.3 16.3Z" fill="#FFFFFF" />
  </g>
</svg>