<?xml version="1.0" encoding="utf-8"?>
<svg width="64" height="64" viewBox="0 0 64 64" fill="none" xmlns="http://www.w3.org/2000/svg">
  <g>
    <path d="M0 1L0 0L64 0L64 1L49 1L49 15L64 15L64 33L49 33L49 47L64 47L64 64L0 64L0 47L15 47L15 33L0 33L0 15L15 15L15 1L0 1L0 1ZM31 49L1 49L1 63L31 63L31 49L31 49ZM31 17L1 17L1 31L31 31L31 17L31 17ZM63 49L33 49L33 63L63 63L63 49L63 49ZM17 33L17 47L47 47L47 33L17 33L17 33ZM17 1L17 15L47 15L47 1L17 1L17 1ZM63 17L33 17L33 31L63 31L63 17L63 17Z" fill="#000000" />
    <path d="M63 16L63 30L33 30L33 16L63 16L63 16ZM64 0L64 14L49 14L49 0L64 0L64 0ZM64 32L64 46L49 46L49 32L64 32L64 32ZM0 46L0 32L15 32L15 46L0 46L0 46ZM0 14L0 0L15 0L15 14L0 14L0 14ZM17 0L47 0L47 14L17 14L17 0L17 0ZM17 32L47 32L47 46L17 46L17 32L17 32ZM63 48L63 62L33 62L33 48L63 48L63 48ZM31 16L31 30L1 30L1 16L31 16L31 16ZM31 48L31 62L1 62L1 48L31 48L31 48Z" fill="#FFFFFF" transform="translate(0 1)" />
  </g>
</svg>